<svg width="18" height="18" viewBox="0 0 18 18" fill="none" xmlns="http://www.w3.org/2000/svg">
<path d="M9 10.7875L0.3125 6.10629C0.429573 5.63434 0.728337 5.22776 1.14375 4.97504L8.70625 0.950036C8.79633 0.900803 8.89734 0.875 9 0.875C9.10266 0.875 9.20367 0.900803 9.29375 0.950036L16.825 4.95629C17.0375 5.08165 17.2231 5.2478 17.3711 5.44516C17.5191 5.64252 17.6266 5.86721 17.6875 6.10629L9 10.7875ZM6.25 10.725L0.25 14.925V7.49379L6.25 10.725ZM10.5188 11.3875L17.4625 16.25C17.2923 16.5171 17.0578 16.7372 16.7804 16.8901C16.503 17.043 16.1917 17.1238 15.875 17.125H2.125C1.80829 17.1238 1.49696 17.043 1.21959 16.8901C0.942219 16.7372 0.707682 16.5171 0.5375 16.25L7.48125 11.3875L8.70625 12.05C8.79638 12.0991 8.89738 12.1248 9 12.1248C9.10262 12.1248 9.20362 12.0991 9.29375 12.05L10.5188 11.3875ZM17.75 7.49379V14.925L11.75 10.725L17.75 7.49379Z" fill="#45A8C2"/>
</svg>
