<svg width="16" height="16" viewBox="0 0 16 16" fill="none" xmlns="http://www.w3.org/2000/svg">
<path d="M0.000226974 11.1149V15.0234C8.7738e-05 15.1579 0.0270452 15.2911 0.0794945 15.4151C0.131943 15.539 0.208808 15.6511 0.305508 15.7446C0.473948 15.9085 0.69961 16.0004 0.934627 16.0006L0.973667 16C4.90445 15.8323 8.62853 14.193 11.4069 11.4074C14.193 8.62869 15.8326 4.9041 16.0002 0.9728C16.0052 0.849969 15.9851 0.727409 15.9411 0.612627C15.8971 0.497846 15.8301 0.393261 15.7442 0.30528C15.6507 0.208658 15.5387 0.131837 15.4149 0.0793909C15.2911 0.0269445 15.158 -5.486e-05 15.0236 8.36889e-08H11.1151C10.8843 0.000919827 10.6614 0.0846099 10.487 0.235868C10.3126 0.387127 10.1983 0.595919 10.1647 0.82432L9.64887 4.43776C9.6281 4.58529 9.64179 4.73563 9.68887 4.87699C9.73595 5.01834 9.81514 5.14686 9.92023 5.25248L11.453 6.78528C11.504 6.8352 11.5369 6.90063 11.5466 6.97129C11.5564 7.04195 11.5423 7.11385 11.5068 7.17568C10.4249 8.94068 8.94091 10.4247 7.17591 11.5066C7.11407 11.5421 7.04218 11.5561 6.97152 11.5464C6.90086 11.5367 6.83543 11.5037 6.78551 11.4528L5.25271 9.92C5.14708 9.81513 5.01865 9.73608 4.87744 9.68901C4.73623 9.64194 4.58605 9.62812 4.43863 9.64864L0.824548 10.1645C0.596147 10.198 0.387354 10.3124 0.236095 10.4868C0.084837 10.6612 0.00114727 10.884 0.000226974 11.1149Z" fill="#45A8C2"/>
</svg>
