<svg width="14" height="18" viewBox="0 0 14 18" fill="none" xmlns="http://www.w3.org/2000/svg">
<path d="M12.6539 4.30114C12.18 3.36688 11.4788 2.56675 10.6148 1.97428C9.75085 1.38181 8.75182 1.01601 7.70955 0.910514C7.23781 0.863162 6.76253 0.863162 6.29079 0.910514C5.24857 1.01618 4.24961 1.38204 3.38567 1.9745C2.52173 2.56695 1.82051 3.36699 1.34642 4.30114C0.749895 5.49312 0.519421 6.83497 0.684024 8.15769C0.848627 9.4804 1.40094 10.7248 2.27142 11.7343L6.51767 16.8968C6.5763 16.968 6.64998 17.0253 6.7334 17.0647C6.81682 17.1041 6.90792 17.1245 7.00017 17.1245C7.09242 17.1245 7.18352 17.1041 7.26694 17.0647C7.35036 17.0253 7.42404 16.968 7.48267 16.8968L11.7283 11.7343C12.5989 10.7249 13.1513 9.4805 13.316 8.15778C13.4807 6.83506 13.2504 5.49318 12.6539 4.30114ZM7.00017 9.62426C6.50572 9.62426 6.02237 9.47764 5.61124 9.20294C5.20012 8.92823 4.87969 8.53779 4.69047 8.08097C4.50125 7.62416 4.45174 7.12149 4.54821 6.63654C4.64467 6.15159 4.88277 5.70613 5.2324 5.3565C5.58203 5.00687 6.02749 4.76876 6.51244 4.6723C6.9974 4.57584 7.50006 4.62535 7.95688 4.81456C8.41369 5.00378 8.80414 5.32422 9.07884 5.73534C9.35355 6.14646 9.50017 6.62981 9.50017 7.12426C9.49934 7.78705 9.23569 8.42245 8.76702 8.89112C8.29836 9.35978 7.66296 9.62344 7.00017 9.62426Z" fill="#45A8C2"/>
</svg>
