<svg width="48" height="48" viewBox="0 0 48 48" fill="none" xmlns="http://www.w3.org/2000/svg">
<path d="M24 48C37.2548 48 48 37.2548 48 24C48 10.7452 37.2548 0 24 0C10.7452 0 0 10.7452 0 24C0 37.2548 10.7452 48 24 48Z" fill="#F1D33D"/>
<path d="M24 48C30.3652 48 36.4697 45.4714 40.9706 40.9706C45.4714 36.4697 48 30.3652 48 24H0C0 30.3652 2.52856 36.4697 7.02944 40.9706C9.25804 43.1992 11.9038 44.967 14.8156 46.1731C17.7274 47.3792 20.8483 48 24 48Z" fill="#E7A324"/>
<path d="M24.0002 46.4339C36.2185 46.4339 46.1234 36.529 46.1234 24.3107C46.1234 12.0924 36.2185 2.1875 24.0002 2.1875C11.7818 2.1875 1.87695 12.0924 1.87695 24.3107C1.87695 36.529 11.7818 46.4339 24.0002 46.4339Z" fill="url(#paint0_linear_3109_134446)"/>
<path d="M23.999 46.43C18.1635 46.4289 12.5648 44.1217 8.42281 40.0112C4.28077 35.9006 1.931 30.3197 1.88541 24.4844V24.6692C1.84065 30.5823 4.14416 36.2715 8.29022 40.4877C12.4363 44.704 18.086 47.1027 23.999 47.1572C29.9133 47.1052 35.5651 44.7079 39.7131 40.4919C43.8612 36.2759 46.1663 30.5859 46.1222 24.6716C46.1222 24.6092 46.1222 24.5492 46.1222 24.4868C46.076 30.3234 43.7246 35.9051 39.5805 40.0154C35.4365 44.1257 29.8358 46.4314 23.999 46.43Z" fill="#D38E26"/>
<path d="M23.9998 42.2378C34.0734 42.2378 42.2398 34.0715 42.2398 23.9978C42.2398 13.9241 34.0734 5.75781 23.9998 5.75781C13.9261 5.75781 5.75977 13.9241 5.75977 23.9978C5.75977 34.0715 13.9261 42.2378 23.9998 42.2378Z" fill="#F9EE60"/>
<path d="M23.9998 5.75781C19.1622 5.75781 14.5228 7.67952 11.1021 11.1002C7.68147 14.5208 5.75977 19.1603 5.75977 23.9978H42.2398C42.2398 19.1603 40.3181 14.5208 36.8974 11.1002C33.4767 7.67952 28.8373 5.75781 23.9998 5.75781Z" fill="#E3A22C"/>
<path d="M23.8 40.6C33.0784 40.6 40.6 33.0784 40.6 23.8C40.6 14.5216 33.0784 7 23.8 7C14.5216 7 7 14.5216 7 23.8C7 33.0784 14.5216 40.6 23.8 40.6Z" fill="url(#paint1_linear_3109_134446)"/>
<path d="M27.3594 18C27.3281 18.375 27.1042 19.0781 26.6875 20.1094C26.4375 20.2448 25.8073 20.3854 24.7969 20.5312C23.8281 20.6771 23.1615 20.7448 22.7969 20.7344L22.4219 20.7188C22.4219 19.8854 22.6042 19.2031 22.9688 18.6719C23.25 18.5469 23.9635 18.401 25.1094 18.2344C26.1823 18.0781 26.9323 18 27.3594 18ZM35.0156 23.125C34.7448 23.9896 34.0365 25.2344 32.8906 26.8594C31.974 28.1615 31.0781 29.3073 30.2031 30.2969L30.1562 30.1406C30.1979 29.7135 30.4115 29.1458 30.7969 28.4375C31.224 27.6562 31.474 27.0833 31.5469 26.7188L31.25 26.6719C31.1042 26.6719 30.2344 26.8906 28.6406 27.3281C26.9219 27.7969 25.901 28.0625 25.5781 28.125C23.4948 28.5104 21.1615 28.7031 18.5781 28.7031C17.2865 28.7031 16.2396 28.4531 15.4375 27.9531C14.4792 27.349 14 26.4375 14 25.2188C14 24.8333 14.1354 24.2656 14.4062 23.5156C14.7083 22.6719 14.9896 22.276 15.25 22.3281L15.3125 22.4844C15.2292 22.6615 15.1875 22.849 15.1875 23.0469C15.1875 24.6406 16.8542 25.4375 20.1875 25.4375C23.4167 25.4375 27.2135 24.875 31.5781 23.75C32.6302 23.4792 33.724 23.151 34.8594 22.7656L34.9844 22.9062L35.0156 23.125Z" fill="white"/>
<defs>
<linearGradient id="paint0_linear_3109_134446" x1="24.0002" y1="2.0003" x2="24.0002" y2="46.4987" gradientUnits="userSpaceOnUse">
<stop stop-color="#FAEE5E"/>
<stop offset="1" stop-color="#EDC12D"/>
</linearGradient>
<linearGradient id="paint1_linear_3109_134446" x1="23.8" y1="6.8224" x2="23.8" y2="40.4848" gradientUnits="userSpaceOnUse">
<stop stop-color="#EFC938"/>
<stop offset="1" stop-color="#F1B62E"/>
</linearGradient>
</defs>
</svg>
