<svg width="48" height="48" viewBox="0 0 48 48" fill="none" xmlns="http://www.w3.org/2000/svg">
<g clip-path="url(#clip0_3109_134404)">
<path d="M47.1276 22.2724H34.6463C34.2457 22.2724 33.899 21.9967 33.8061 21.607C32.9305 17.9368 30.0294 15.0448 26.3542 14.1822C25.963 14.0903 25.6855 13.7431 25.6855 13.3413V0.864625C25.6855 0.349375 26.1332 -0.0492496 26.6455 0.00493794C32.0974 0.582719 37.1493 2.98469 41.0813 6.91563C45.0021 10.8375 47.4025 15.8749 47.9872 21.3112C48.0422 21.824 47.6433 22.2724 47.1276 22.2724Z" fill="#FF7258"/>
<path d="M25.6855 13.342V10.7734C31.6944 11.5158 36.4601 16.2699 37.221 22.2733H34.6464C34.2458 22.2733 33.8991 21.9976 33.8062 21.6078C32.9305 17.9376 30.0295 15.0456 26.3543 14.183C25.963 14.0912 25.6855 13.7438 25.6855 13.342Z" fill="#F95D48"/>
<path d="M47.9956 26.4746C47.5149 31.0802 45.7322 35.4016 42.8267 39.0041C42.5029 39.4054 41.9039 39.4407 41.5393 39.076L34.5516 32.0883L32.713 30.2497C32.4285 29.9652 32.3803 29.5234 32.5917 29.1811C33.1546 28.2698 33.5752 27.262 33.823 26.1885C33.9137 25.7953 34.2616 25.5156 34.6651 25.5156H47.136C47.6508 25.5155 48.0492 25.9625 47.9956 26.4746Z" fill="#FFDC65"/>
<path d="M37.2372 25.5156C36.9508 27.9742 35.9932 30.2275 34.5516 32.0884L32.713 30.2498C32.4285 29.9653 32.3803 29.5235 32.5917 29.1812C33.1546 28.2699 33.5752 27.2621 33.823 26.1886C33.9137 25.7954 34.2616 25.5157 34.6651 25.5157H37.2372V25.5156Z" fill="#FFC846"/>
<path d="M39.2504 41.3718C39.6145 41.736 39.5801 42.3338 39.1801 42.6579C34.9127 46.1156 29.6335 47.9963 24.0641 47.9963C17.6372 47.9963 11.594 45.4923 7.04844 40.948C2.52857 36.4282 0.0283575 30.4275 0.000232514 24.0412C-0.0279862 17.6277 2.51338 11.4506 7.04853 6.91559C10.9798 2.98428 16.0324 0.582316 21.485 0.00491088C21.9966 -0.0491828 22.443 0.350473 22.443 0.864878V13.3413C22.443 13.7439 22.1645 14.0907 21.7725 14.1828C17.3509 15.2215 14.0491 19.1977 14.0491 23.9324C14.0491 29.4537 18.5416 33.9472 24.0639 33.9472C26.0056 33.9472 27.8194 33.3912 29.3558 32.431C29.6985 32.2169 30.1426 32.2643 30.4282 32.55L39.2504 41.3718Z" fill="#00ABE0"/>
<path d="M30.4285 32.5495L32.271 34.3919C30.0087 36.1788 27.1493 37.2464 24.0412 37.2471C16.6802 37.2487 10.7695 31.3558 10.75 23.995C10.7319 17.18 15.8446 11.5548 22.4433 10.7656V13.3407C22.4433 13.7432 22.1648 14.0901 21.7729 14.1822C17.3513 15.2209 14.0495 19.197 14.0495 23.9318C14.0495 29.4531 18.542 33.9466 24.0643 33.9466C26.006 33.9466 27.8198 33.3906 29.3562 32.4304C29.6988 32.2164 30.1428 32.2638 30.4285 32.5495Z" fill="#099DD1"/>
</g>
<defs>
<clipPath id="clip0_3109_134404">
<rect width="48" height="48" fill="white"/>
</clipPath>
</defs>
</svg>
