<svg width="48" height="48" viewBox="0 0 48 48" fill="none" xmlns="http://www.w3.org/2000/svg">
<path d="M24 48C37.2548 48 48 37.2548 48 24C48 10.7452 37.2548 0 24 0C10.7452 0 0 10.7452 0 24C0 37.2548 10.7452 48 24 48Z" fill="#3DF1BB"/>
<path d="M24 48C30.3652 48 36.4697 45.4714 40.9706 40.9706C45.4714 36.4697 48 30.3652 48 24H0C0 30.3652 2.52856 36.4697 7.02944 40.9706C9.25804 43.1992 11.9038 44.967 14.8156 46.1731C17.7274 47.3792 20.8483 48 24 48Z" fill="#24E7C4"/>
<path d="M24.0002 46.4339C36.2185 46.4339 46.1234 36.529 46.1234 24.3107C46.1234 12.0924 36.2185 2.1875 24.0002 2.1875C11.7818 2.1875 1.87695 12.0924 1.87695 24.3107C1.87695 36.529 11.7818 46.4339 24.0002 46.4339Z" fill="url(#paint0_linear_3109_134437)"/>
<path d="M23.999 46.43C18.1635 46.4289 12.5648 44.1217 8.42281 40.0112C4.28077 35.9006 1.931 30.3197 1.88541 24.4844V24.6692C1.84065 30.5823 4.14416 36.2715 8.29022 40.4877C12.4363 44.704 18.086 47.1027 23.999 47.1572C29.9133 47.1052 35.5651 44.7079 39.7131 40.4919C43.8612 36.2759 46.1663 30.5859 46.1222 24.6716C46.1222 24.6092 46.1222 24.5492 46.1222 24.4868C46.076 30.3234 43.7246 35.9051 39.5805 40.0154C35.4365 44.1257 29.8358 46.4314 23.999 46.43Z" fill="#26D3BE"/>
<path d="M23.9998 42.2378C34.0734 42.2378 42.2398 34.0715 42.2398 23.9978C42.2398 13.9241 34.0734 5.75781 23.9998 5.75781C13.9261 5.75781 5.75977 13.9241 5.75977 23.9978C5.75977 34.0715 13.9261 42.2378 23.9998 42.2378Z" fill="#60C2F9"/>
<path d="M23.9998 5.75781C19.1622 5.75781 14.5228 7.67952 11.1021 11.1002C7.68147 14.5208 5.75977 19.1603 5.75977 23.9978H42.2398C42.2398 19.1603 40.3181 14.5208 36.8974 11.1002C33.4767 7.67952 28.8373 5.75781 23.9998 5.75781Z" fill="#2CC2E3"/>
<path d="M23.9992 40.8031C33.2776 40.8031 40.7992 33.2815 40.7992 24.0031C40.7992 14.7247 33.2776 7.20312 23.9992 7.20312C14.7208 7.20312 7.19922 14.7247 7.19922 24.0031C7.19922 33.2815 14.7208 40.8031 23.9992 40.8031Z" fill="url(#paint1_linear_3109_134437)"/>
<path fill-rule="evenodd" clip-rule="evenodd" d="M26.3856 20.4712L26.34 17.4808H33.012V13H14.88V17.4808H21.552V20.4688C16.08 20.668 12 21.7624 12 23.0584C12 24.3544 16.08 25.4584 21.5592 25.648V35.008H26.34V25.648H26.4408C31.92 25.444 36 24.352 36 23.0584C36 21.7648 31.8408 20.6752 26.3856 20.4712ZM21.5592 24.9496C16.7808 24.7504 13.1952 23.8552 13.1952 22.8592C13.1952 21.8632 16.7808 21.0664 21.5592 20.7664V24.0544C21.8592 24.0544 22.7592 24.1528 24.0504 24.1528C25.5432 24.1528 26.34 24.0544 26.4504 24.0544L26.4 20.7712C31.1544 20.9728 34.716 21.8656 34.716 22.8592C34.716 23.8528 31.1304 24.652 26.3496 24.9496C24.7542 25.0453 23.1546 25.0453 21.5592 24.9496Z" fill="white"/>
<defs>
<linearGradient id="paint0_linear_3109_134437" x1="24.0002" y1="2.0003" x2="24.0002" y2="46.4987" gradientUnits="userSpaceOnUse">
<stop stop-color="#5EFAAF"/>
<stop offset="1" stop-color="#2DEDED"/>
</linearGradient>
<linearGradient id="paint1_linear_3109_134437" x1="23.9992" y1="7.02552" x2="23.9992" y2="40.6879" gradientUnits="userSpaceOnUse">
<stop stop-color="#38EFC3"/>
<stop offset="1" stop-color="#2EF1DA"/>
</linearGradient>
</defs>
</svg>
