<svg width="100" height="100" viewBox="0 0 100 100" fill="none" xmlns="http://www.w3.org/2000/svg">
<path opacity="0.4" d="M75 78.5832H71.8334C68.5 78.5832 65.3333 79.8749 63 82.2082L55.875 89.2499C52.625 92.4582 47.3333 92.4582 44.0833 89.2499L36.9583 82.2082C34.625 79.8749 31.4167 78.5832 28.125 78.5832H25C18.0833 78.5832 12.5 73.0417 12.5 66.2084V20.7499C12.5 13.9165 18.0833 8.375 25 8.375H75C81.9167 8.375 87.5 13.9165 87.5 20.7499V66.2084C87.5 73 81.9167 78.5832 75 78.5832Z" fill="#45A8C2"/>
<path d="M43.25 60.4609H32.0833C30.25 60.4609 28.5416 59.5859 27.4583 58.0859C26.4166 56.6692 26.1666 54.9193 26.6666 53.2526C28.125 48.7943 31.7083 46.3775 34.875 44.2108C38.2083 41.9608 40.0833 40.5443 40.0833 38.1276C40.0833 35.9609 38.3333 34.2109 36.1666 34.2109C33.9999 34.2109 32.25 35.9609 32.25 38.1276C32.25 39.8359 30.8333 41.2526 29.125 41.2526C27.4167 41.2526 26 39.8359 26 38.1276C26 32.5443 30.5416 27.9609 36.1666 27.9609C41.7916 27.9609 46.3333 32.5026 46.3333 38.1276C46.3333 44.0026 41.9167 47.0025 38.375 49.4191C36.1667 50.9191 34.0833 52.3359 33.0416 54.2109H43.2083C44.9166 54.2109 46.3333 55.6276 46.3333 57.3359C46.3333 59.0442 44.9583 60.4609 43.25 60.4609Z" fill="#45A8C2"/>
<path d="M66.8326 60.4592C65.1243 60.4592 63.7076 59.0426 63.7076 57.3342V54.4592H55.541C55.541 54.4592 55.541 54.4592 55.4994 54.4592C53.4577 54.4592 51.5827 53.3759 50.541 51.6259C49.4993 49.8343 49.4993 47.6259 50.541 45.8759C53.3743 41.0009 56.666 35.4591 59.666 30.6258C60.9994 28.5008 63.541 27.5426 65.916 28.2093C68.291 28.9176 69.9577 31.0842 69.916 33.5842V48.2509H70.8327C72.541 48.2509 73.9577 49.6676 73.9577 51.3759C73.9577 53.0843 72.541 54.5009 70.8327 54.5009H69.9576V57.376C69.9576 59.0843 68.5826 60.4592 66.8326 60.4592ZM63.7076 36.0009C61.2493 40.0009 58.7076 44.2926 56.416 48.2092H63.7076V36.0009Z" fill="#45A8C2"/>
</svg>
