<svg width="100" height="100" viewBox="0 0 100 100" fill="none" xmlns="http://www.w3.org/2000/svg">
<path opacity="0.4" d="M26.9167 36.7057C20.1052 36.7057 14.5833 31.1839 14.5833 24.3724C14.5833 17.5609 20.1052 12.0391 26.9167 12.0391C33.7282 12.0391 39.25 17.5609 39.25 24.3724C39.25 31.1839 33.7282 36.7057 26.9167 36.7057Z" fill="#45A8C2"/>
<path d="M73.0827 36.7057C66.2712 36.7057 60.7493 31.1839 60.7493 24.3724C60.7493 17.5609 66.2712 12.0391 73.0827 12.0391C79.8942 12.0391 85.416 17.5609 85.416 24.3724C85.416 31.1839 79.8942 36.7057 73.0827 36.7057Z" fill="#45A8C2"/>
<path d="M26.9167 87.9557C20.1052 87.9557 14.5833 82.4339 14.5833 75.6224C14.5833 68.8109 20.1052 63.2891 26.9167 63.2891C33.7282 63.2891 39.25 68.8109 39.25 75.6224C39.25 82.4339 33.7282 87.9557 26.9167 87.9557Z" fill="#45A8C2"/>
<path opacity="0.4" d="M73.0827 87.9557C66.2712 87.9557 60.7493 82.4339 60.7493 75.6224C60.7493 68.8109 66.2712 63.2891 73.0827 63.2891C79.8942 63.2891 85.416 68.8109 85.416 75.6224C85.416 82.4339 79.8942 87.9557 73.0827 87.9557Z" fill="#45A8C2"/>
</svg>
