<svg width="100" height="100" viewBox="0 0 100 100" fill="none" xmlns="http://www.w3.org/2000/svg">
<path opacity="0.4" d="M54.334 8.79176L77.2506 17.3751C81.6257 19.0418 85.209 24.2084 85.209 28.9168V62.6668C85.209 66.0418 83.0007 70.5001 80.2923 72.5001L57.3757 89.6251C53.334 92.6668 46.709 92.6668 42.6673 89.6251L19.7506 72.5001C17.0423 70.4584 14.834 66.0418 14.834 62.6668V28.9168C14.834 24.2501 18.4173 19.0418 22.7923 17.4168L45.709 8.83342C48.0423 7.91676 51.959 7.91676 54.334 8.79176Z" fill="#45A8C2"/>
<path d="M49.9994 67.7083C60.916 67.7083 69.791 58.8333 69.791 47.9167C69.791 37 60.916 28.125 49.9994 28.125C39.0827 28.125 30.2077 37 30.2077 47.9167C30.2077 58.8333 39.0827 67.7083 49.9994 67.7083ZM49.9994 34.375C57.4577 34.375 63.541 40.4583 63.541 47.9167C63.541 55.375 57.4577 61.4583 49.9994 61.4583C42.541 61.4583 36.4577 55.375 36.4577 47.9167C36.4577 40.4583 42.541 34.375 49.9994 34.375Z" fill="#45A8C2"/>
<path d="M54.1652 55.2083C55.2069 55.2083 56.2485 54.6667 56.8319 53.7083C57.7069 52.2083 57.2485 50.2917 55.7485 49.4167L52.5819 47.5C52.2485 47.2917 52.0819 46.9583 52.0819 46.625V42.75C52.0819 41.0417 50.6652 39.625 48.9569 39.625C47.2485 39.625 45.8319 41 45.8319 42.7083V46.5833C45.8319 49.125 47.2069 51.5417 49.3735 52.8333L52.5819 54.75C53.0402 55.0833 53.6235 55.2083 54.1652 55.2083Z" fill="#45A8C2"/>
</svg>
