<svg width="100" height="100" viewBox="0 0 100 100" fill="none" xmlns="http://www.w3.org/2000/svg">
<path d="M50 56.7943C51.4322 56.7943 52.625 55.6015 52.625 54.1693V33.3359C52.625 31.9037 51.4322 30.7109 50 30.7109C48.5678 30.7109 47.375 31.9037 47.375 33.3359V54.1693C47.375 55.6015 48.5678 56.7943 50 56.7943Z" fill="#45A8C2" stroke="#45A8C2"/>
<path d="M37.9577 14.3776H62.041C63.7077 14.3776 65.041 13.0443 65.041 11.3776C65.041 9.71094 63.7077 8.33594 62.041 8.33594H37.9577C36.291 8.33594 34.9577 9.66927 34.9577 11.3359C34.9577 13.0026 36.291 14.3776 37.9577 14.3776Z" fill="#45A8C2"/>
<path opacity="0.4" d="M37.5 83.2057V70.9557C37.5 65.6641 34.3333 62.4974 29.0417 62.4974H16.7917C16 62.4974 15.2917 62.5807 14.5833 62.7474C14.125 60.4141 13.875 57.9974 13.875 55.5391C13.875 35.6224 30.0833 19.4141 50 19.4141C69.9167 19.4141 86.125 35.6224 86.125 55.5391C86.125 75.4557 69.9167 91.6641 50 91.6641C44.9583 91.6641 40.1667 90.6224 35.7917 88.7474C36.875 87.3307 37.5 85.4974 37.5 83.2057Z" fill="#45A8C2"/>
<path d="M16.7917 62.5H29C34.3333 62.5 37.5 65.6667 37.5 70.9583V83.1667C37.5 88.4583 34.3333 91.625 29.0417 91.625H16.8333C11.5417 91.625 8.375 88.4583 8.375 83.1667V70.9583C8.33334 65.6667 11.5 62.5 16.7917 62.5ZM25.3333 83.5833C25.3333 84.9167 26.4167 86 27.75 86C29.0833 86 30.1667 84.9167 30.1667 83.5833V70.625C30.1667 69.2917 29.0833 68.2083 27.75 68.2083C26.4167 68.2083 25.3333 69.2917 25.3333 70.625V83.5833ZM15.625 83.5833C15.625 84.9167 16.7083 86 18.0417 86C19.375 86 20.4583 84.9167 20.4583 83.5833V70.625C20.4583 69.2917 19.375 68.2083 18.0417 68.2083C16.7083 68.2083 15.625 69.2917 15.625 70.625V83.5833Z" fill="#45A8C2"/>
</svg>
