<svg width="70" height="71" viewBox="0 0 70 71" fill="none" xmlns="http://www.w3.org/2000/svg">
<path d="M68.9524 43.472C64.2772 62.2242 45.2844 73.6365 26.5301 68.9602C7.78342 64.2851 -3.62892 45.2912 1.04841 26.5401C5.72138 7.78574 24.7142 -3.62768 43.4631 1.04747C62.2163 5.7227 73.6275 24.7188 68.9524 43.472Z" fill="#F7931A"/>
<path d="M23.4884 40.8975C23.2981 41.3701 22.8157 42.0789 21.7283 41.8098C21.7667 41.8656 18.9368 41.113 18.9368 41.113L17.0303 45.5092L22.0281 46.7552C22.9579 46.9882 23.8691 47.2321 24.766 47.4618L23.1766 53.8435L27.0128 54.8006L28.5869 48.4868C29.6349 48.7711 30.6521 49.0337 31.6475 49.2809L30.0789 55.5651L33.9195 56.5223L35.5089 50.1527C42.0579 51.392 46.9824 50.8922 49.0553 44.9688C50.7257 40.1997 48.9722 37.4485 45.5265 35.6546C48.0359 35.0759 49.926 33.4253 50.4303 30.0157C51.127 25.358 47.5807 22.8541 42.7316 21.1838L44.3046 14.8743L40.464 13.9172L38.9326 20.0603C37.923 19.8087 36.8859 19.5713 35.8556 19.3361L37.3979 13.1524L33.5595 12.1953L31.9854 18.5025C31.1497 18.3122 30.3294 18.124 29.533 17.9261L29.5373 17.9063L24.2408 16.5839L23.2191 20.6859C23.2191 20.6859 26.0686 21.3389 26.0085 21.3794C27.564 21.7677 27.8451 22.797 27.7981 23.6131L23.4884 40.8975ZM41.6553 42.3206C40.4685 47.0898 32.4384 44.5116 29.835 43.8651L31.944 35.4107C34.5473 36.0604 42.8957 37.3467 41.6553 42.3206ZM42.8432 29.9468C41.7603 34.2851 35.0767 32.081 32.9087 31.5406L34.8208 23.8725C36.9888 24.4129 43.971 25.4214 42.8432 29.9468Z" fill="white"/>
</svg>
