<svg width="211" height="120" viewBox="0 0 211 120" fill="none" xmlns="http://www.w3.org/2000/svg">
<path d="M196.907 81.9352C196.907 80.5856 197.308 79.2663 198.057 78.1442C198.807 77.0221 199.873 76.1475 201.12 75.631C202.367 75.1146 203.738 74.9795 205.062 75.2427C206.386 75.506 207.602 76.1559 208.556 77.1102C209.51 78.0645 210.16 79.2803 210.423 80.6039C210.687 81.9276 210.551 83.2996 210.035 84.5464C209.519 85.7932 208.644 86.8589 207.522 87.6087C206.4 88.3585 205.08 88.7587 203.731 88.7587C201.921 88.7587 200.186 88.0398 198.906 86.7601C197.626 85.4804 196.907 83.7449 196.907 81.9352ZM44.8403 88.7587C43.0306 88.7587 41.295 88.0398 40.0153 86.7601C38.7357 85.4804 38.0168 83.7449 38.0168 81.9352C38.0168 80.1254 38.7357 78.3898 40.0153 77.1102C41.295 75.8305 43.0306 75.1116 44.8403 75.1116H6.82352C5.01381 75.1116 3.27822 74.3927 1.99856 73.1131C0.718905 71.8334 0 70.0978 0 68.2881C0 66.4784 0.718905 64.7428 1.99856 63.4631C3.27822 62.1835 5.01381 61.4646 6.82352 61.4646H45.8151C47.6248 61.4646 49.3604 60.7457 50.64 59.466C51.9197 58.1864 52.6386 56.4508 52.6386 54.6411C52.6386 52.8313 51.9197 51.0958 50.64 49.8161C49.3604 48.5364 47.6248 47.8175 45.8151 47.8175H21.4454C19.6356 47.8175 17.9001 47.0986 16.6204 45.819C15.3407 44.5393 14.6218 42.8037 14.6218 40.994C14.6218 39.1843 15.3407 37.4487 16.6204 36.169C17.9001 34.8894 19.6356 34.1705 21.4454 34.1705H60.4369C58.6272 34.1705 56.8916 33.4516 55.612 32.1719C54.3323 30.8923 53.6134 29.1567 53.6134 27.347C53.6134 25.5373 54.3323 23.8017 55.612 22.522C56.8916 21.2423 58.6272 20.5234 60.4369 20.5234H116C117.81 20.5234 119.545 21.2423 120.825 22.522C122.105 23.8017 122.823 25.5373 122.823 27.347C122.823 29.1567 122.105 30.8923 120.825 32.1719C119.545 33.4516 117.81 34.1705 116 34.1705H178.386C180.196 34.1705 181.932 34.8894 183.211 36.169C184.491 37.4487 185.21 39.1843 185.21 40.994C185.21 42.8037 184.491 44.5393 183.211 45.819C181.932 47.0986 180.196 47.8175 178.386 47.8175H199.832C201.641 47.8175 203.377 48.5364 204.657 49.8161C205.936 51.0958 206.655 52.8313 206.655 54.6411C206.655 56.4508 205.936 58.1864 204.657 59.466C203.377 60.7457 201.641 61.4646 199.832 61.4646H181.311C179.501 61.4646 177.765 62.1835 176.486 63.4631C175.206 64.7428 174.487 66.4784 174.487 68.2881C174.487 70.0978 175.206 71.8334 176.486 73.1131C177.765 74.3927 179.501 75.1116 181.311 75.1116H187.16C188.969 75.1116 190.705 75.8305 191.984 77.1102C193.264 78.3898 193.983 80.1254 193.983 81.9352C193.983 83.7449 193.264 85.4804 191.984 86.7601C190.705 88.0398 188.969 88.7587 187.16 88.7587H44.8403Z" fill="#F6F6F6"/>
<path d="M155.479 2V7.84873" stroke="#A4C3FE" stroke-width="2.5" stroke-miterlimit="10" stroke-linecap="round" stroke-linejoin="round"/>
<path d="M155.479 15.6484V21.4972" stroke="#A4C3FE" stroke-width="2.5" stroke-miterlimit="10" stroke-linecap="round" stroke-linejoin="round"/>
<path d="M145.734 11.75H151.583" stroke="#A4C3FE" stroke-width="2.5" stroke-miterlimit="10" stroke-linecap="round" stroke-linejoin="round"/>
<path d="M159.384 11.75H165.233" stroke="#A4C3FE" stroke-width="2.5" stroke-miterlimit="10" stroke-linecap="round" stroke-linejoin="round"/>
<path d="M74.5681 102.406V106.305" stroke="#A4C3FE" stroke-width="2.5" stroke-miterlimit="10" stroke-linecap="round" stroke-linejoin="round"/>
<path d="M74.5681 114.102V118.001" stroke="#A4C3FE" stroke-width="2.5" stroke-miterlimit="10" stroke-linecap="round" stroke-linejoin="round"/>
<path d="M66.7719 110.203H70.671" stroke="#A4C3FE" stroke-width="2.5" stroke-miterlimit="10" stroke-linecap="round" stroke-linejoin="round"/>
<path d="M78.4724 110.203H82.3716" stroke="#A4C3FE" stroke-width="2.5" stroke-miterlimit="10" stroke-linecap="round" stroke-linejoin="round"/>
<path d="M99.4312 100.493C126.618 100.493 148.658 78.4532 148.658 51.2659C148.658 24.0787 126.618 2.03906 99.4312 2.03906C72.244 2.03906 50.2043 24.0787 50.2043 51.2659C50.2043 78.4532 72.244 100.493 99.4312 100.493Z" fill="#EB3D3C"/>
<path d="M114.053 36.6406L84.8094 65.8843" stroke="#E8F0FE" stroke-width="6" stroke-linecap="round"/>
<path d="M114.053 65.8843L84.8094 36.6406" stroke="#E8F0FE" stroke-width="6" stroke-linecap="round"/>
</svg>
