<svg width="120" height="50" viewBox="0 0 120 50" fill="none" xmlns="http://www.w3.org/2000/svg">
<path d="M88.0855 49.2114C88.0291 49.2114 87.9726 49.2195 87.9162 49.2195C86.1342 49.2195 84.3523 49.2195 82.5703 49.2276C82.3123 49.2276 82.2881 49.179 82.4171 48.9606C83.3041 47.4557 84.1749 45.9347 85.0457 44.4217C85.1344 44.2599 85.207 44.1304 85.3521 44.3893C86.2552 45.967 87.1744 47.5447 88.0855 49.1224C88.0855 49.1386 88.0774 49.1709 88.0855 49.2114Z" fill="white"/>
<path d="M39.5748 49.2276C37.6545 49.2276 35.7503 49.2276 33.8301 49.2276C33.8461 49.1707 33.8541 49.122 33.8781 49.0814C34.7662 47.5304 35.6543 45.9793 36.5344 44.4283C36.6384 44.2415 36.7024 44.1359 36.8544 44.4039C37.7425 45.9793 38.6466 47.5466 39.5428 49.122C39.5588 49.1464 39.5588 49.1707 39.5748 49.2276Z" fill="white"/>
<path d="M110.997 46.1848C111.607 46.5731 111.784 47.1597 111.669 47.862C111.561 48.5477 111.113 48.903 110.527 49.0847C109.747 49.3326 108.945 49.1921 108.158 49.2087C107.965 49.2169 107.872 49.0517 107.872 48.8534C107.872 47.2258 107.872 45.5982 107.872 43.9706C107.872 43.7805 107.972 43.6484 108.15 43.6484C108.829 43.6566 109.508 43.5575 110.172 43.7145C111.383 44.0119 111.753 45.0859 110.997 46.1848ZM108.667 47.5645C108.667 47.7876 108.667 48.0107 108.667 48.242C108.667 48.3329 108.636 48.4568 108.783 48.4568C109.33 48.4486 109.878 48.5312 110.403 48.2916C110.727 48.1511 110.897 47.8868 110.897 47.5067C110.889 47.1349 110.689 46.9201 110.372 46.7962C110.094 46.6888 109.809 46.664 109.516 46.664C108.667 46.6722 108.667 46.664 108.667 47.5645ZM108.667 45.152C108.667 45.3421 108.667 45.5238 108.667 45.7138C108.667 45.8295 108.682 45.9039 108.813 45.9039C109.253 45.9039 109.701 45.9204 110.125 45.7717C110.426 45.6643 110.573 45.4495 110.565 45.0942C110.55 44.7472 110.349 44.5737 110.079 44.4993C109.855 44.4415 109.616 44.4167 109.392 44.4085C108.667 44.4002 108.667 44.4085 108.667 45.152Z" fill="white"/>
<path d="M14.0425 44.2541C13.6564 44.9423 13.3018 45.5739 12.9393 46.2054C12.4034 47.1608 11.8597 48.1081 11.3239 49.0634C11.2214 49.2497 11.1505 49.3063 11.0244 49.0796C10.1339 47.4927 9.2356 45.9058 8.29785 44.2541C8.68398 44.2541 9.01495 44.2541 9.3538 44.2541C9.51141 44.2541 9.53505 44.3999 9.59021 44.497C10.0473 45.2986 10.5043 46.1082 10.9535 46.9098C11.0086 47.015 11.0796 47.1122 11.1663 47.266C11.4893 46.7074 11.7888 46.1811 12.0804 45.6548C12.2852 45.2986 12.5059 44.9423 12.6793 44.5699C12.8053 44.3108 12.9708 44.2217 13.2387 44.246C13.4988 44.2703 13.7352 44.2541 14.0425 44.2541Z" fill="white"/>
<path d="M62.5363 46.1539C62.4959 46.6682 62.6091 47.2822 62.4554 47.8962C62.2452 48.7021 61.7357 49.1319 60.8784 49.2164C59.9646 49.3008 59.1235 48.9017 58.7757 48.2339C58.6463 47.9883 58.7757 47.8809 58.9698 47.7657C59.2448 47.5969 59.4955 47.5662 59.6977 47.8425C59.9484 48.1879 60.28 48.3414 60.7328 48.3107C61.1049 48.2877 61.3151 48.1111 61.4283 47.7964C61.5254 47.5278 61.5092 47.2438 61.5173 46.9675C61.5173 46.2 61.5173 45.4324 61.5173 44.6649C61.5173 44.2965 61.5901 44.2581 62.0511 44.2427C62.3746 44.2351 62.5687 44.3041 62.5525 44.6649C62.5201 45.1254 62.5363 45.5859 62.5363 46.1539Z" fill="white"/>
<path d="M114.684 5.10852C111.21 1.72497 107.017 0.0212996 102.118 0.0133755C94.8967 0.00545152 87.6668 0.0133775 80.4451 0.00545346C80.186 0.00545346 79.935 0.0133717 79.6759 0.0292197C79.093 0.0529918 78.5101 0.116386 77.9272 0.219398C72.5109 1.1782 68.6571 6.60616 69.6206 11.8994C70.4706 16.5667 74.1058 19.9027 78.7611 20.4653C79.2873 20.5366 79.8217 20.5762 80.3722 20.5762C79.5302 20.5841 79.263 20.5921 81.9267 20.5921C82.9711 20.5921 84.0074 20.6079 85.0518 20.5841C85.1004 20.5841 85.1408 20.5762 85.1894 20.5762C90.2252 20.5762 95.261 20.5762 100.297 20.5762C101.341 20.5762 102.386 20.5921 103.43 20.5683C104.92 20.5366 105.956 19.1578 105.567 17.7553C105.284 16.7331 104.402 16.1229 103.211 16.1229C96.3945 16.1229 89.5775 16.1229 82.7606 16.1229C83.1978 16.115 83.0844 16.1071 79.9674 16.0991C79.8136 16.0991 79.6598 16.0912 79.514 16.0754C76.5751 15.7346 74.2354 13.2148 74.2354 10.2671C74.2434 7.1133 76.8261 4.53006 80.0565 4.45875C87.3754 4.45082 94.6943 4.45875 102.021 4.45083C103.43 4.45083 104.798 4.6727 106.126 5.11645C112.781 7.31932 116.578 14.4113 114.74 21.1864C113.162 27.0264 107.842 31.0518 101.722 31.0201C93.6823 30.9725 85.6509 30.9884 77.6114 31.0042C75.1097 31.0042 72.9157 30.9963 71.2965 30.9963C71.0617 30.9567 70.9078 30.8457 70.7702 30.6001C70.0254 29.2926 69.2481 28.0089 68.479 26.7173C66.544 23.4764 62.1883 23.4685 60.2533 26.7094C59.4923 27.9852 58.7313 29.2609 57.9864 30.5525C57.7921 30.8933 57.5816 31.0201 57.1687 31.0201C50.4975 31.0042 43.8263 31.0121 37.147 31.0121C30.6458 31.0121 24.1365 31.0121 17.6353 31.0121C15.9837 31.0121 14.3969 30.6793 12.8829 30.0613C6.96462 27.6365 3.48328 21.329 4.81915 15.172C6.02547 9.60937 9.49061 6.06733 15.1903 4.71232C16.5261 4.39536 17.8944 4.46667 19.2545 4.45875C20.4852 4.4429 21.4648 3.4841 21.4972 2.2955C21.5215 1.12274 20.6147 0.0846879 19.4246 0.0292197C16.4209 -0.113413 13.4982 0.251092 10.7131 1.45554C2.73034 4.91042 -1.63347 13.7774 0.568678 22.1135C2.62509 29.9186 9.59586 35.4258 17.5544 35.4417C31.674 35.4734 45.7937 35.4496 59.9133 35.4575C60.2291 35.4575 60.3829 35.3545 60.5367 35.093C61.6945 33.112 62.8765 31.1389 64.0504 29.1658C64.3662 28.6349 64.3662 28.6349 64.6657 29.15C65.8397 31.1231 67.0136 33.0962 68.1714 35.0772C68.228 35.1802 68.2928 35.2515 68.3576 35.3149V35.5209C68.3576 35.5209 91.2534 35.5209 102.369 35.5051C105.405 35.5051 108.255 34.7444 110.895 33.2705C121.233 27.5018 123.144 13.3495 114.684 5.10852Z" fill="white"/>
</svg>
