<svg width="99" height="70" viewBox="0 0 99 70" fill="none" xmlns="http://www.w3.org/2000/svg">
<path d="M92.583 57.1318C92.584 56.4975 92.7731 55.8777 93.1262 55.3508C93.4794 54.8239 93.9808 54.4135 94.5671 54.1715C95.1534 53.9294 95.7983 53.8666 96.4203 53.991C97.0423 54.1154 97.6135 54.4213 98.0616 54.8702C98.5098 55.3191 98.8148 55.8908 98.9382 56.513C99.0616 57.1352 98.9978 57.78 98.7548 58.3659C98.5118 58.9518 98.1006 59.4526 97.5731 59.8049C97.0456 60.1572 96.4256 60.3452 95.7912 60.3452C94.9399 60.3438 94.1239 60.0047 93.5224 59.4022C92.9208 58.7997 92.583 57.9831 92.583 57.1318V57.1318ZM21.0873 60.3452C20.2351 60.3452 19.4177 60.0067 18.8151 59.404C18.2125 58.8014 17.8739 57.984 17.8739 57.1318C17.8739 56.2795 18.2125 55.4622 18.8151 54.8596C19.4177 54.2569 20.2351 53.9184 21.0873 53.9184H3.21343C2.36117 53.9184 1.54383 53.5798 0.941191 52.9772C0.338557 52.3745 0 51.5572 0 50.7049C0 49.8527 0.338557 49.0353 0.941191 48.4327C1.54383 47.8301 2.36117 47.4915 3.21343 47.4915H21.5455C22.3978 47.4915 23.2151 47.1529 23.8178 46.5503C24.4204 45.9477 24.7589 45.1303 24.7589 44.2781C24.7589 43.4258 24.4204 42.6085 23.8178 42.0058C23.2151 41.4032 22.3978 41.0646 21.5455 41.0646H10.0876C9.23532 41.0646 8.41797 40.7261 7.81534 40.1235C7.2127 39.5208 6.87414 38.7035 6.87414 37.8512C6.87414 36.999 7.2127 36.1816 7.81534 35.579C8.41797 34.9763 9.23532 34.6378 10.0876 34.6378H28.4202C27.5679 34.6378 26.7506 34.2992 26.1479 33.6966C25.5453 33.094 25.2067 32.2766 25.2067 31.4244C25.2067 30.5721 25.5453 29.7548 26.1479 29.1521C26.7506 28.5495 27.5679 28.2109 28.4202 28.2109H54.5422C55.3945 28.2109 56.2118 28.5495 56.8145 29.1521C57.4171 29.7548 57.7557 30.5721 57.7557 31.4244C57.7557 32.2766 57.4171 33.094 56.8145 33.6966C56.2118 34.2992 55.3945 34.6378 54.5422 34.6378H83.8741C84.7263 34.6378 85.5437 34.9763 86.1463 35.579C86.749 36.1816 87.0875 36.999 87.0875 37.8512C87.0875 38.7035 86.749 39.5208 86.1463 40.1235C85.5437 40.7261 84.7263 41.0646 83.8741 41.0646H93.957C94.8093 41.0646 95.6266 41.4032 96.2292 42.0058C96.8319 42.6085 97.1704 43.4258 97.1704 44.2781C97.1704 45.1303 96.8319 45.9477 96.2292 46.5503C95.6266 47.1529 94.8093 47.4915 93.957 47.4915H85.2496C84.3974 47.4915 83.58 47.8301 82.9774 48.4327C82.3748 49.0353 82.0362 49.8527 82.0362 50.7049C82.0362 51.5572 82.3748 52.3745 82.9774 52.9772C83.58 53.5798 84.3974 53.9184 85.2496 53.9184H87.9992C88.8515 53.9184 89.6688 54.2569 90.2714 54.8596C90.8741 55.4622 91.2126 56.2795 91.2126 57.1318C91.2126 57.984 90.8741 58.8014 90.2714 59.404C89.6688 60.0067 88.8515 60.3452 87.9992 60.3452H21.0873Z" fill="#F6F6F6"/>
<path d="M49.2911 16.9219C53.0575 16.9219 56.6697 18.4181 59.3329 21.0813C61.9962 23.7446 63.4924 27.3567 63.4924 31.1232V68.2211H35.0898V31.1232C35.0898 27.3567 36.586 23.7446 39.2493 21.0813C41.9126 18.4181 45.5247 16.9219 49.2911 16.9219V16.9219Z" fill="white" stroke="#45A8C2" stroke-width="2.5" stroke-miterlimit="10"/>
<path d="M29.8055 48.4031V44.6605C29.8055 43.2007 29.2255 41.8007 28.1933 40.7684C27.161 39.7362 25.761 39.1562 24.3012 39.1562C22.8413 39.1562 21.4413 39.7362 20.409 40.7684C19.3768 41.8007 18.7969 43.2007 18.7969 44.6605V53.4674C18.7967 54.1903 18.939 54.9061 19.2156 55.574C19.4922 56.2418 19.8976 56.8487 20.4087 57.3598C20.9199 57.871 21.5267 58.2764 22.1946 58.553C22.8625 58.8296 23.5783 58.9718 24.3012 58.9717C24.3737 58.9717 24.4489 58.9717 24.5214 58.9675" fill="white"/>
<path d="M29.8055 48.4031V44.6605C29.8055 43.2007 29.2255 41.8007 28.1933 40.7684C27.161 39.7362 25.761 39.1562 24.3012 39.1562C22.8413 39.1562 21.4413 39.7362 20.409 40.7684C19.3768 41.8007 18.7969 43.2007 18.7969 44.6605V53.4674C18.7967 54.1903 18.939 54.9061 19.2156 55.574C19.4922 56.2418 19.8976 56.8487 20.4087 57.3598C20.9199 57.871 21.5267 58.2764 22.1946 58.553C22.8625 58.8296 23.5783 58.9718 24.3012 58.9717C24.3737 58.9717 24.4489 58.9717 24.5214 58.9675" stroke="#45A8C2" stroke-width="2.5" stroke-miterlimit="10"/>
<path d="M29.8061 48.4062H35.0928V58.9743H24.5195V58.9696" fill="white"/>
<path d="M29.8061 48.4062H35.0928V58.9743H24.5195V58.9696" stroke="#45A8C2" stroke-width="2.5" stroke-miterlimit="10" stroke-linecap="round"/>
<path d="M68.7734 38.0594V34.3168C68.7734 32.857 69.3534 31.4569 70.3856 30.4247C71.4179 29.3924 72.8179 28.8125 74.2777 28.8125C75.7376 28.8125 77.1376 29.3924 78.1698 30.4247C79.2021 31.4569 79.782 32.857 79.782 34.3168V43.1237C79.7822 43.8465 79.6399 44.5624 79.3633 45.2302C79.0867 45.8981 78.6813 46.5049 78.1702 47.0161C77.659 47.5272 77.0522 47.9327 76.3843 48.2092C75.7164 48.4858 75.0006 48.6281 74.2777 48.6279C74.2052 48.6279 74.13 48.6279 74.0575 48.6238" fill="white"/>
<path d="M68.7734 38.0594V34.3168C68.7734 32.857 69.3534 31.4569 70.3856 30.4247C71.4179 29.3924 72.8179 28.8125 74.2777 28.8125C75.7376 28.8125 77.1376 29.3924 78.1698 30.4247C79.2021 31.4569 79.782 32.857 79.782 34.3168V43.1237C79.7822 43.8465 79.6399 44.5624 79.3633 45.2302C79.0867 45.8981 78.6813 46.5049 78.1702 47.0161C77.659 47.5272 77.0522 47.9327 76.3843 48.2092C75.7164 48.4858 75.0006 48.6281 74.2777 48.6279C74.2052 48.6279 74.13 48.6279 74.0575 48.6238" stroke="#45A8C2" stroke-width="2.5" stroke-miterlimit="10"/>
<path d="M68.7768 38.0547H63.4902V48.6227H74.0583V48.6181" fill="white"/>
<path d="M68.7768 38.0547H63.4902V48.6227H74.0583V48.6181" stroke="#45A8C2" stroke-width="2.5" stroke-miterlimit="10" stroke-linecap="round"/>
<path d="M32.8867 33.2109H37.313" stroke="#45A8C2" stroke-width="2" stroke-miterlimit="10" stroke-linecap="round"/>
<path d="M17.3691 46.9766L19.7756 48.2775" stroke="#45A8C2" stroke-width="2" stroke-miterlimit="10" stroke-linecap="round"/>
<path d="M17.1094 50.5859L19.931 51.6749" stroke="#45A8C2" stroke-width="2" stroke-miterlimit="10" stroke-linecap="round"/>
<path d="M33.002 28.5469L37.1975 29.9566" stroke="#45A8C2" stroke-width="2" stroke-miterlimit="10" stroke-linecap="round"/>
<path d="M17.6699 43.1094L20.2303 44.7057" stroke="#45A8C2" stroke-width="2" stroke-miterlimit="10" stroke-linecap="round"/>
<path d="M34.2344 24.4922L38.1667 26.5239" stroke="#45A8C2" stroke-width="2" stroke-miterlimit="10" stroke-linecap="round"/>
<path d="M36.3848 20.9141L39.9817 23.4936" stroke="#45A8C2" stroke-width="2" stroke-miterlimit="10" stroke-linecap="round"/>
<path d="M21.1816 37.5703L22.678 40.8205" stroke="#45A8C2" stroke-width="2" stroke-miterlimit="10" stroke-linecap="round"/>
<path d="M27.4748 37.4922L25.9785 40.7424" stroke="#45A8C2" stroke-width="2" stroke-miterlimit="10" stroke-linecap="round"/>
<path d="M30.3248 40.5312L28.2832 42.6433" stroke="#45A8C2" stroke-width="2" stroke-miterlimit="10" stroke-linecap="round"/>
<path d="M31.3634 45.1953L29.1445 46.1469" stroke="#45A8C2" stroke-width="2" stroke-miterlimit="10" stroke-linecap="round"/>
<path d="M67.127 34.4219L69.5334 35.7228" stroke="#45A8C2" stroke-width="2" stroke-miterlimit="10" stroke-linecap="round"/>
<path d="M67.8691 30.5547L70.4295 32.151" stroke="#45A8C2" stroke-width="2" stroke-miterlimit="10" stroke-linecap="round"/>
<path d="M71.1602 27.4453L72.6565 30.6955" stroke="#45A8C2" stroke-width="2" stroke-miterlimit="10" stroke-linecap="round"/>
<path d="M76.7912 27.1406L75.2949 30.3909" stroke="#45A8C2" stroke-width="2" stroke-miterlimit="10" stroke-linecap="round"/>
<path d="M80.1625 29.2109L77.6016 31.7102" stroke="#45A8C2" stroke-width="2" stroke-miterlimit="10" stroke-linecap="round"/>
<path d="M81.5219 33.2812L78.6816 34.3977" stroke="#45A8C2" stroke-width="2" stroke-miterlimit="10" stroke-linecap="round"/>
<path d="M33.5996 60.6875L37.1966 63.2671" stroke="#45A8C2" stroke-width="2" stroke-miterlimit="10" stroke-linecap="round"/>
<path d="M33.082 63.1875L36.679 65.7671" stroke="#45A8C2" stroke-width="2" stroke-miterlimit="10" stroke-linecap="round"/>
<path d="M42.6699 16.0547L44.7037 19.986" stroke="#45A8C2" stroke-width="2" stroke-miterlimit="10" stroke-linecap="round"/>
<path d="M46.8574 14.7344L47.5607 19.1046" stroke="#45A8C2" stroke-width="2" stroke-miterlimit="10" stroke-linecap="round"/>
<path d="M52.4011 15.1719L51.7051 19.5432" stroke="#45A8C2" stroke-width="2" stroke-miterlimit="10" stroke-linecap="round"/>
<path d="M56.5847 16.4922L55.8887 20.8635" stroke="#45A8C2" stroke-width="2" stroke-miterlimit="10" stroke-linecap="round"/>
<path d="M60.2689 18.7812L57.9277 22.5379" stroke="#45A8C2" stroke-width="2" stroke-miterlimit="10" stroke-linecap="round"/>
<path d="M77.0723 42.8203C76.9019 43.4597 76.5675 44.0436 76.1022 44.514C75.6368 44.9845 75.0566 45.3252 74.4191 45.5025" stroke="#45A8C2" stroke-width="2.5" stroke-miterlimit="10" stroke-linecap="round"/>
<path d="M44.7048 36.2344C44.6974 36.0357 44.7301 35.8376 44.801 35.6519C44.8719 35.4662 44.9795 35.2967 45.1174 35.1536C45.2553 35.0104 45.4206 34.8965 45.6035 34.8187C45.7865 34.7409 45.9832 34.7008 46.182 34.7008C46.3808 34.7008 46.5775 34.7409 46.7604 34.8187C46.9433 34.8965 47.1087 35.0104 47.2466 35.1536C47.3845 35.2967 47.4921 35.4662 47.563 35.6519C47.6339 35.8376 47.6666 36.0357 47.6591 36.2344" stroke="#45A8C2" stroke-width="2.5" stroke-miterlimit="10" stroke-linecap="round"/>
<path d="M50.8298 36.2344C50.8224 36.0357 50.8551 35.8376 50.926 35.6519C50.9969 35.4662 51.1045 35.2967 51.2424 35.1536C51.3803 35.0104 51.5456 34.8965 51.7285 34.8187C51.9115 34.7409 52.1082 34.7008 52.307 34.7008C52.5058 34.7008 52.7025 34.7409 52.8854 34.8187C53.0683 34.8965 53.2337 35.0104 53.3716 35.1536C53.5095 35.2967 53.6171 35.4662 53.688 35.6519C53.7589 35.8376 53.7916 36.0357 53.7841 36.2344" stroke="#45A8C2" stroke-width="2.5" stroke-miterlimit="10" stroke-linecap="round"/>
<path d="M27.217 4.10977C28.0757 4.10977 28.7719 3.41362 28.7719 2.55488C28.7719 1.69615 28.0757 1 27.217 1C26.3583 1 25.6621 1.69615 25.6621 2.55488C25.6621 3.41362 26.3583 4.10977 27.217 4.10977Z" stroke="#45A8C2" stroke-width="2" stroke-miterlimit="10"/>
<path d="M36.5629 10.3283C36.5629 10.9109 36.0906 11.3832 35.508 11.3832C34.9254 11.3832 34.4531 10.9109 34.4531 10.3283C34.4531 9.74573 34.9254 9.27344 35.508 9.27344C36.0906 9.27344 36.5629 9.74573 36.5629 10.3283Z" fill="#A4C3FE" stroke="#45A8C2"/>
<path d="M27.7358 13.9585L25.601 16.0897L27.7358 13.9585ZM27.7358 13.9585L25.5352 11.7578L27.7358 13.9585ZM27.7358 13.9585L29.9329 11.7578L27.7358 13.9585ZM27.7358 13.9585L29.8671 16.0897L27.7358 13.9585Z" stroke="#45A8C2" stroke-width="2.5" stroke-miterlimit="10" stroke-linecap="round" stroke-linejoin="round"/>
</svg>
