<svg width="214" height="120" viewBox="0 0 214 120" fill="none" xmlns="http://www.w3.org/2000/svg">
<path d="M199.803 81.8922C199.803 80.5326 200.209 79.2035 200.97 78.0731C201.731 76.9426 202.812 76.0615 204.077 75.5412C205.342 75.0209 206.734 74.8848 208.077 75.15C209.421 75.4153 210.654 76.07 211.623 77.0314C212.591 77.9928 213.25 79.2176 213.518 80.5511C213.785 81.8846 213.648 83.2668 213.124 84.5229C212.599 85.779 211.712 86.8527 210.573 87.608C209.435 88.3634 208.096 88.7665 206.727 88.7665C204.89 88.7665 203.129 88.0423 201.831 86.7531C200.532 85.4639 199.803 83.7154 199.803 81.8922ZM45.4997 88.7665C43.6633 88.7665 41.9022 88.0423 40.6037 86.7531C39.3053 85.4639 38.5758 83.7154 38.5758 81.8922C38.5758 80.0691 39.3053 78.3205 40.6037 77.0314C41.9022 75.7422 43.6633 75.0179 45.4997 75.0179H6.92386C5.08754 75.0179 3.32643 74.2937 2.02795 73.0045C0.729476 71.7153 0 69.9668 0 68.1436C0 66.3204 0.729476 64.5719 2.02795 63.2827C3.32643 61.9936 5.08754 61.2693 6.92386 61.2693H46.4888C48.3251 61.2693 50.0862 60.5451 51.3847 59.2559C52.6832 57.9667 53.4126 56.2182 53.4126 54.395C53.4126 52.5718 52.6832 50.8233 51.3847 49.5341C50.0862 48.2449 48.3251 47.5207 46.4888 47.5207H21.7607C19.9244 47.5207 18.1633 46.7964 16.8648 45.5072C15.5663 44.2181 14.8368 42.4696 14.8368 40.6464C14.8368 38.8232 15.5663 37.0747 16.8648 35.7855C18.1633 34.4963 19.9244 33.7721 21.7607 33.7721H61.3256C59.4893 33.7721 57.7282 33.0478 56.4297 31.7586C55.1312 30.4694 54.4018 28.7209 54.4018 26.8977C54.4018 25.0746 55.1312 23.3261 56.4297 22.0369C57.7282 20.7477 59.4893 20.0234 61.3256 20.0234H117.706C119.542 20.0234 121.303 20.7477 122.602 22.0369C123.9 23.3261 124.63 25.0746 124.63 26.8977C124.63 28.7209 123.9 30.4694 122.602 31.7586C121.303 33.0478 119.542 33.7721 117.706 33.7721H181.01C182.846 33.7721 184.607 34.4963 185.905 35.7855C187.204 37.0747 187.933 38.8232 187.933 40.6464C187.933 42.4696 187.204 44.2181 185.905 45.5072C184.607 46.7964 182.846 47.5207 181.01 47.5207H202.77C204.607 47.5207 206.368 48.2449 207.666 49.5341C208.965 50.8233 209.694 52.5718 209.694 54.395C209.694 56.2182 208.965 57.9667 207.666 59.2559C206.368 60.5451 204.607 61.2693 202.77 61.2693H183.977C182.141 61.2693 180.379 61.9936 179.081 63.2827C177.783 64.5719 177.053 66.3204 177.053 68.1436C177.053 69.9668 177.783 71.7153 179.081 73.0045C180.379 74.2937 182.141 75.0179 183.977 75.0179H189.912C191.748 75.0179 193.509 75.7422 194.808 77.0314C196.106 78.3205 196.835 80.0691 196.835 81.8922C196.835 83.7154 196.106 85.4639 194.808 86.7531C193.509 88.0423 191.748 88.7665 189.912 88.7665H45.4997Z" fill="#F6F6F6"/>
<path d="M157.766 1.36719V7.25945" stroke="#F6F6F6" stroke-width="2.5" stroke-miterlimit="10" stroke-linecap="round" stroke-linejoin="round"/>
<path d="M157.766 15.1172V21.0095" stroke="#F6F6F6" stroke-width="2.5" stroke-miterlimit="10" stroke-linecap="round" stroke-linejoin="round"/>
<path d="M147.875 11.1875H153.81" stroke="#F6F6F6" stroke-width="2.5" stroke-miterlimit="10" stroke-linecap="round" stroke-linejoin="round"/>
<path d="M161.727 11.1875H167.661" stroke="#F6F6F6" stroke-width="2.5" stroke-miterlimit="10" stroke-linecap="round" stroke-linejoin="round"/>
<path d="M75.6641 102.516V106.444" stroke="#F6F6F6" stroke-width="2.5" stroke-miterlimit="10" stroke-linecap="round" stroke-linejoin="round"/>
<path d="M75.6641 114.297V118.225" stroke="#F6F6F6" stroke-width="2.5" stroke-miterlimit="10" stroke-linecap="round" stroke-linejoin="round"/>
<path d="M67.7539 110.367H71.7104" stroke="#F6F6F6" stroke-width="2.5" stroke-miterlimit="10" stroke-linecap="round" stroke-linejoin="round"/>
<path d="M79.625 110.367H83.5815" stroke="#F6F6F6" stroke-width="2.5" stroke-miterlimit="10" stroke-linecap="round" stroke-linejoin="round"/>
<path d="M100.892 100.601C128.479 100.601 150.843 78.3969 150.843 51.0073C150.843 23.6177 128.479 1.41406 100.892 1.41406C73.3051 1.41406 50.9414 23.6177 50.9414 51.0073C50.9414 78.3969 73.3051 100.601 100.892 100.601Z" fill="#37B66A"/>
<path d="M82.5752 52.7994C81.8798 52.1802 80.9675 51.8564 80.0342 51.8977C79.101 51.9391 78.2213 52.3421 77.5841 53.0204C77.2717 53.3538 77.0294 53.7458 76.8714 54.1733C76.7134 54.6008 76.6428 55.0553 76.6638 55.5102C76.6848 55.9651 76.7969 56.4113 76.9937 56.8227C77.1904 57.2341 77.4678 57.6024 77.8096 57.906L94.4358 72.7752C95.4094 73.642 96.6866 74.0951 97.993 74.0373C99.2994 73.9794 100.531 73.4152 101.423 72.4658C101.5 72.3824 101.5 72.3824 101.574 72.2959L125.3 44.3578C125.597 44.01 125.82 43.607 125.958 43.1724C126.096 42.7379 126.144 42.2804 126.102 41.8268C126.059 41.3732 125.926 40.9326 125.71 40.5308C125.493 40.129 125.199 39.7741 124.842 39.4868C124.119 38.9 123.193 38.6182 122.263 38.702C121.333 38.7857 120.473 39.2283 119.868 39.9346L97.5614 66.2014L82.5752 52.7994Z" fill="white"/>
<path opacity="0.5" d="M78.6367 26.6885C80.2911 23.9119 82.6459 21.6114 85.4688 20.0138C88.2918 18.4162 91.4854 17.5767 94.7347 17.5781" stroke="white" stroke-width="4" stroke-miterlimit="10" stroke-linecap="round"/>
</svg>
