<svg width="42" height="33" viewBox="0 0 42 33" fill="none" xmlns="http://www.w3.org/2000/svg">
<path d="M41.8922 10.6026V10.6605V10.6026ZM0 11.9386V20.0399H14.9245V11.9386H0ZM20.5727 32.0863V30.3801H19.5425C18.3177 30.3788 17.1434 29.8917 16.2773 29.0257C15.4113 28.1596 14.9241 26.9853 14.9228 25.7605V21.3195H0V26.9629C0 27.6496 0.135268 28.3297 0.398084 28.9641C0.6609 29.5986 1.04612 30.1752 1.53174 30.6608C2.01736 31.1464 2.59387 31.5316 3.22837 31.7945C3.86286 32.0573 4.5429 32.1925 5.22967 32.1925L20.5727 32.0863ZM27.0755 11.9386V20.0399H42V11.9386H27.0755ZM25.7959 21.3195V6.43851C25.7955 5.55197 25.4431 4.70189 24.8162 4.07501C24.1893 3.44813 23.3392 3.09575 22.4527 3.09532H20.4664V0H4.58904C3.3722 0.00170419 2.20571 0.485938 1.34542 1.34653C0.485134 2.20712 0.00127746 3.37379 0 4.59064V10.6605H16.2025V25.754C16.2033 26.64 16.5557 27.4895 17.1822 28.116C17.8087 28.7424 18.6581 29.0947 19.5441 29.0956H21.8523V31.9737H37.4093C38.6265 31.9724 39.7934 31.4883 40.654 30.6277C41.5146 29.767 41.9987 28.6001 42 27.383V21.3131L25.7959 21.3195ZM0 11.9386V20.0399H14.9245V11.9386H0ZM0 11.9386V20.0399H14.9245V11.9386H0Z" fill="white"/>
<path d="M41.8938 5.23284V10.6621H27.0772V6.43682C27.0751 5.21156 26.5873 4.03713 25.7207 3.1709C24.8542 2.30466 23.6796 1.81728 22.4543 1.81558H21.7461V0.109375H36.7704C38.1288 0.110654 39.4312 0.65087 40.3917 1.61143C41.3523 2.57198 41.8925 3.87441 41.8938 5.23284Z" fill="white"/>
</svg>
