<svg width="316" height="307" viewBox="0 0 316 307" fill="none" xmlns="http://www.w3.org/2000/svg">
<path d="M311.023 165.011C303.506 193.06 285.653 224.351 257.406 235.812C214.731 253.138 212.875 289.049 133.881 293.303C122.356 293.978 110.782 293.395 99.3766 291.566C93.8005 290.659 88.2879 289.394 82.8735 287.776C35.1215 273.537 7.21963 234.863 1.12317 192.202C-6.89996 136.061 29.8687 105.417 53.9311 87.2332C77.9934 69.0493 102.977 5.11036 180.6 0.321792C192.455 -0.44466 204.36 0.160012 216.067 2.11482C242.788 6.6643 270.732 19.694 288.297 41.0281C289.619 42.6313 290.884 44.2768 292.108 45.9503C316.03 78.8796 321.275 126.765 311.023 165.011Z" fill="#23839D"/>
<path opacity="0.7" d="M311.023 165.011C303.506 193.06 285.653 224.351 257.406 235.812C214.731 253.138 212.875 289.049 133.881 293.303C122.356 293.978 110.782 293.395 99.3766 291.566C93.8005 290.659 88.2879 289.394 82.8735 287.776C35.1215 273.537 7.21963 234.863 1.12317 192.202C-6.89996 136.061 29.8687 105.417 53.9311 87.2332C77.9934 69.0493 102.977 5.11036 180.6 0.321792C192.455 -0.44466 204.36 0.160012 216.067 2.11482C242.788 6.6643 270.732 19.694 288.297 41.0281C289.619 42.6313 290.884 44.2768 292.108 45.9503C316.03 78.8796 321.275 126.765 311.023 165.011Z" fill="white"/>
<path d="M231.74 88.0799C232.19 88.0799 232.626 87.8971 232.943 87.5807C233.266 87.2643 233.442 86.8283 233.442 86.3783V72.315C233.442 71.865 233.266 71.429 232.943 71.1126C232.626 70.7891 232.19 70.6134 231.74 70.6134H231.67V65.1146C231.67 64.2215 231.494 63.3426 231.15 62.5199C230.805 61.6902 230.306 60.9447 229.673 60.3189C229.04 59.6861 228.295 59.1868 227.472 58.8492C226.643 58.5047 225.763 58.3359 224.87 58.3359H76.5023C74.7022 58.3359 72.9795 59.0532 71.7068 60.326C70.4341 61.5987 69.7168 63.3215 69.7168 65.1216V167.622C69.7168 169.422 70.4341 171.145 71.7068 172.418C72.9795 173.683 74.7022 174.401 76.5023 174.401H224.87C226.671 174.401 228.393 173.683 229.666 172.418C230.939 171.145 231.656 169.422 231.656 167.622V130.847H231.726C232.176 130.847 232.612 130.664 232.929 130.347C233.252 130.031 233.428 129.595 233.428 129.145V115.082C233.428 114.632 233.252 114.195 232.929 113.879C232.612 113.556 232.176 113.38 231.726 113.38H231.656V111.601H231.726C232.176 111.601 232.612 111.418 232.929 111.102C233.252 110.785 233.428 110.349 233.428 109.899V95.8359C233.428 95.3858 233.252 94.9499 232.929 94.6335C232.612 94.31 232.176 94.1343 231.726 94.1343H231.656V88.0799H231.74Z" fill="#263238"/>
<path d="M225.623 62.8594H75.7852V169.881H225.623V62.8594Z" fill="#23839D" stroke="#263238" stroke-miterlimit="10"/>
<path d="M192.847 76.625H109.051V143.925H192.847V76.625Z" fill="#E3E3E3" stroke="#263238" stroke-miterlimit="10"/>
<path d="M140.582 125.276V125.698H139.555V127.196H140.814V127.617H139.084V123.398H140.814V123.82H139.555V125.262L140.582 125.276Z" fill="#B2B2B2"/>
<path d="M141.664 127.617H141.242V123.398H141.833L142.81 126.436V123.398H143.225V127.617H142.74L141.664 124.214V127.617Z" fill="#B2B2B2"/>
<path d="M144.316 127.619V123.836H143.535V123.414H145.553V123.836H144.78V127.619H144.316Z" fill="#B2B2B2"/>
<path d="M147.367 125.276V125.698H146.34V127.196H147.599V127.617H145.869V123.398H147.599V123.82H146.34V125.262L147.367 125.276Z" fill="#B2B2B2"/>
<path d="M148.97 123.413C149.631 123.413 149.913 123.743 149.913 124.369V124.713C149.913 125.178 149.751 125.466 149.385 125.578C149.772 125.698 149.92 126.007 149.92 126.457V127.111C149.906 127.287 149.934 127.456 150.004 127.617H149.526C149.456 127.456 149.435 127.287 149.449 127.111V126.45C149.449 125.972 149.224 125.825 148.837 125.825H148.506V127.617H148.035V123.398L148.97 123.413ZM148.851 125.395C149.224 125.395 149.449 125.276 149.449 124.819V124.411C149.449 124.038 149.308 123.834 148.963 123.834H148.506V125.395H148.851Z" fill="#B2B2B2"/>
<path d="M153.197 124.422V124.802H152.747V124.401C152.747 124.021 152.6 123.789 152.255 123.789C151.91 123.789 151.763 124.021 151.763 124.401V126.623C151.763 127.003 151.918 127.235 152.255 127.235C152.593 127.235 152.747 127.003 152.747 126.623V126.074H153.197V126.602C153.197 127.235 152.895 127.657 152.241 127.657C151.587 127.657 151.299 127.235 151.299 126.602V124.422C151.299 123.782 151.601 123.367 152.241 123.367C152.881 123.367 153.197 123.782 153.197 124.422Z" fill="#B2B2B2"/>
<path d="M153.584 124.423C153.584 123.783 153.9 123.369 154.547 123.369C154.688 123.361 154.822 123.383 154.948 123.432C155.075 123.481 155.194 123.566 155.286 123.664C155.377 123.762 155.447 123.889 155.49 124.016C155.525 124.149 155.539 124.29 155.518 124.423V126.603C155.539 126.737 155.532 126.877 155.49 127.011C155.447 127.145 155.384 127.264 155.292 127.37C155.194 127.468 155.082 127.552 154.955 127.602C154.828 127.658 154.695 127.679 154.554 127.672C153.907 127.672 153.591 127.25 153.591 126.617L153.584 124.423ZM154.048 126.624C154.048 127.011 154.21 127.236 154.547 127.236C154.885 127.236 155.047 127.011 155.047 126.624V124.402C155.047 124.023 154.892 123.79 154.547 123.79C154.203 123.79 154.048 124.023 154.048 124.402V126.624Z" fill="#B2B2B2"/>
<path d="M156.945 123.411C157.599 123.411 157.902 123.805 157.902 124.452V126.561C157.902 127.208 157.599 127.602 156.945 127.602H155.961V123.383L156.945 123.411ZM156.945 127.194C157.283 127.194 157.445 126.983 157.445 126.596V124.431C157.445 124.044 157.283 123.833 156.938 123.833H156.439V127.194H156.945Z" fill="#B2B2B2"/>
<path d="M159.834 125.276V125.698H158.807V127.196H160.073V127.617H158.336V123.398H160.073V123.82H158.807V125.262L159.834 125.276Z" fill="#B2B2B2"/>
<path d="M186.232 98.8516H115.521V106.833H186.232V98.8516Z" fill="white" stroke="#263238" stroke-miterlimit="10"/>
<path d="M186.232 111.508H115.521V119.489H186.232V111.508Z" fill="white" stroke="#263238" stroke-miterlimit="10"/>
<path d="M160.868 129.508H154.195V137.489H160.868V129.508Z" fill="white" stroke="#263238" stroke-miterlimit="10"/>
<path d="M152.367 129.508H145.693V137.489H152.367V129.508Z" fill="white" stroke="#263238" stroke-miterlimit="10"/>
<path d="M143.872 129.508H137.199V137.489H143.872V129.508Z" fill="white" stroke="#263238" stroke-miterlimit="10"/>
<path d="M135.379 129.508H129.008V137.489H135.379V129.508Z" fill="white" stroke="#263238" stroke-miterlimit="10"/>
<path d="M169.609 129.508H162.689V137.489H169.609V129.508Z" fill="white" stroke="#263238" stroke-miterlimit="10"/>
<path d="M154.323 85.7542V84.2213C154.273 83.054 153.781 81.9502 152.938 81.1415C152.101 80.3399 150.975 79.8828 149.815 79.8828C148.648 79.8828 147.523 80.3399 146.686 81.1415C145.843 81.9502 145.35 83.054 145.301 84.2213V85.7542H145.217V94.2344H154.407V85.7542H154.323ZM150.104 90.4162V91.9491H149.211V90.4022C148.964 90.3037 148.753 90.1139 148.627 89.8818C148.5 89.6427 148.458 89.3684 148.507 89.1012C148.557 88.8411 148.705 88.602 148.908 88.4333C149.119 88.2575 149.379 88.1661 149.647 88.1661C149.914 88.1661 150.174 88.2575 150.385 88.4333C150.589 88.602 150.737 88.8411 150.786 89.1012C150.835 89.3684 150.793 89.6427 150.666 89.8818C150.54 90.1139 150.329 90.3037 150.083 90.4022L150.104 90.4162ZM152.628 85.7542H147.038V84.2213C147.115 83.5322 147.446 82.8993 147.959 82.4352C148.472 81.9782 149.14 81.725 149.836 81.725C150.526 81.725 151.194 81.9782 151.707 82.4352C152.22 82.8993 152.551 83.5322 152.628 84.2213V85.7542Z" fill="#263238"/>
<path d="M139.927 103.812C139.927 104.192 140.075 104.417 140.419 104.417C140.764 104.417 140.904 104.192 140.904 103.812V100.591H141.348V103.763C141.348 104.403 141.052 104.832 140.398 104.832C139.744 104.832 139.463 104.403 139.463 103.763V100.57H139.927V103.812Z" fill="#B2B2B2"/>
<path d="M143.633 101.609V101.722H143.183V101.581C143.183 101.209 143.042 100.984 142.705 100.984C142.367 100.984 142.227 101.209 142.227 101.581C142.227 102.524 143.633 102.615 143.633 103.796C143.633 104.436 143.323 104.851 142.677 104.851C142.03 104.851 141.734 104.436 141.734 103.796V103.557H142.177V103.825C142.177 104.197 142.332 104.422 142.67 104.422C143.007 104.422 143.162 104.197 143.162 103.825C143.162 102.882 141.755 102.791 141.755 101.609C141.755 100.955 142.051 100.555 142.684 100.555C143.317 100.555 143.633 100.955 143.633 101.609Z" fill="#B2B2B2"/>
<path d="M145.546 102.456V102.878H144.513V104.376H145.779V104.805H144.049V100.586H145.779V101.015H144.513V102.421L145.546 102.456Z" fill="#B2B2B2"/>
<path d="M147.15 100.593C147.81 100.593 148.084 100.931 148.084 101.556V101.901C148.084 102.365 147.923 102.653 147.564 102.766C147.951 102.878 148.092 103.195 148.092 103.645V104.299C148.078 104.474 148.106 104.643 148.176 104.805H147.705C147.634 104.643 147.607 104.467 147.621 104.292V103.631C147.621 103.153 147.403 103.005 147.009 103.005H146.678V104.805H146.207V100.586L147.15 100.593ZM147.03 102.576C147.402 102.576 147.621 102.456 147.621 101.999V101.598C147.621 101.219 147.487 101.022 147.135 101.022H146.678V102.576H147.03Z" fill="#B2B2B2"/>
<path d="M149.928 104.805H149.506V100.586H150.104L151.074 103.631V100.586H151.489V104.805H151.039L149.963 101.402L149.928 104.805Z" fill="#B2B2B2"/>
<path d="M152.445 103.954L152.284 104.805H151.848L152.656 100.586H153.359L154.161 104.805H153.697L153.528 103.954H152.445ZM152.509 103.553H153.444L152.973 101.12L152.509 103.553Z" fill="#B2B2B2"/>
<path d="M156.059 104.798H155.609L154.906 101.451V104.805H154.498V100.586H155.152L155.855 103.947L156.523 100.586H157.177V104.805H156.734V101.416L156.059 104.798Z" fill="#B2B2B2"/>
<path d="M159.145 102.456V102.878H158.118V104.376H159.384V104.805H157.654V100.586H159.384V101.015H158.118V102.421L159.145 102.456Z" fill="#B2B2B2"/>
<path d="M140.568 115.102L141.208 115.805L140.899 116.03L140.428 115.193L139.957 116.03L139.654 115.805L140.28 115.102L139.352 114.905L139.464 114.539L140.343 114.926L140.238 113.977H140.617L140.519 114.926L141.398 114.546L141.511 114.912L140.568 115.102Z" fill="#B2B2B2"/>
<path d="M142.945 115.102L143.585 115.805L143.276 116.03L142.805 115.193L142.333 116.03L142.024 115.805L142.657 115.102L141.729 114.905L141.841 114.539L142.72 114.926L142.607 113.977H142.994L142.889 114.926L143.768 114.546L143.887 114.912L142.945 115.102Z" fill="#B2B2B2"/>
<path d="M145.321 115.102L145.961 115.805L145.652 116.03L145.174 115.193L144.709 116.03L144.4 115.805L145.033 115.102L144.098 114.905L144.217 114.539L145.089 114.926L144.984 113.977H145.37L145.265 114.926L146.144 114.546L146.257 114.912L145.321 115.102Z" fill="#B2B2B2"/>
<path d="M147.698 115.102L148.331 115.805L148.029 116.03L147.551 115.193L147.08 116.03L146.777 115.805L147.41 115.102L146.475 114.905L146.587 114.539L147.466 114.926L147.361 113.977H147.741L147.642 114.926L148.521 114.546L148.634 114.912L147.698 115.102Z" fill="#B2B2B2"/>
<path d="M150.068 115.102L150.708 115.805L150.398 116.03L149.927 115.193L149.456 116.03L149.154 115.805L149.78 115.102L148.852 114.905L148.964 114.539L149.843 114.926L149.731 113.977H150.117L150.019 114.926L150.898 114.546L151.01 114.912L150.068 115.102Z" fill="#B2B2B2"/>
<path d="M152.444 115.102L153.084 115.805L152.775 116.03L152.304 115.193L151.833 116.03L151.523 115.805L152.156 115.102L151.221 114.905L151.341 114.539L152.219 114.926L152.107 113.977H152.493L152.388 114.926L153.267 114.546L153.387 114.912L152.444 115.102Z" fill="#B2B2B2"/>
<path d="M154.821 115.102L155.461 115.805L155.152 116.03L154.673 115.193L154.209 116.03L153.9 115.805L154.533 115.102L153.598 114.905L153.71 114.539L154.589 114.926L154.483 113.977H154.87L154.765 114.926L155.644 114.546L155.756 114.912L154.821 115.102Z" fill="#B2B2B2"/>
<path d="M157.198 115.102L157.831 115.805L157.529 116.03L157.05 115.193L156.579 116.03L156.277 115.805L156.91 115.102L155.975 114.905L156.087 114.539L156.966 114.926L156.86 113.977H157.24L157.142 114.926L158.021 114.546L158.133 114.912L157.198 115.102Z" fill="#B2B2B2"/>
<path d="M158.042 306.777C182.885 306.777 203.024 287.855 203.024 264.51C203.024 241.164 182.885 222.242 158.042 222.242C133.199 222.242 113.061 241.164 113.061 264.51C113.061 287.855 133.199 306.777 158.042 306.777Z" fill="#263238"/>
<path d="M157.093 304.574C181.936 304.574 202.074 285.651 202.074 262.306C202.074 238.961 181.936 220.039 157.093 220.039C132.25 220.039 112.111 238.961 112.111 262.306C112.111 285.651 132.25 304.574 157.093 304.574Z" fill="white" stroke="#263238" stroke-miterlimit="10"/>
<path d="M157.093 298.795C178.533 298.795 195.915 282.46 195.915 262.308C195.915 242.155 178.533 225.82 157.093 225.82C135.654 225.82 118.271 242.155 118.271 262.308C118.271 282.46 135.654 298.795 157.093 298.795Z" fill="white" stroke="#263238" stroke-miterlimit="10"/>
<path d="M167.851 237.742C152.269 237.742 139.633 253.613 139.633 273.196C139.633 285.853 144.9 296.907 152.81 303.186C154.118 303.298 155.44 303.362 156.776 303.362C173.16 303.362 187.441 294.98 195.071 282.534C195.725 279.475 196.048 276.353 196.041 273.224C196.041 253.613 183.433 237.742 167.851 237.742Z" fill="#263238"/>
<path d="M139.964 257.211H121.59V261.606H139.964V257.211Z" fill="white" stroke="#263238" stroke-miterlimit="10"/>
<path d="M163.575 285.503C179.052 285.503 191.603 273.711 191.603 259.169C191.603 244.628 179.052 232.836 163.575 232.836C148.098 232.836 135.547 244.628 135.547 259.169C135.547 273.711 148.098 285.503 163.575 285.503Z" fill="white" stroke="#263238" stroke-miterlimit="10"/>
<path d="M163.576 281.156C176.493 281.156 186.97 271.311 186.97 259.168C186.97 247.024 176.493 237.18 163.576 237.18C150.659 237.18 140.182 247.024 140.182 259.168C140.182 271.311 150.659 281.156 163.576 281.156Z" fill="#263238" stroke="#263238" stroke-miterlimit="10"/>
<path d="M153.773 239.007C153.625 238.642 153.45 238.283 153.253 237.938C150.862 233.783 151.143 228.502 152.95 223.594" stroke="#263238" stroke-miterlimit="10"/>
<path d="M154.146 247.748C154.146 247.748 155.398 242.995 153.773 239.008" stroke="white" stroke-miterlimit="10"/>
<path d="M162.493 237.938C160.11 233.783 160.384 228.502 162.198 223.594" stroke="#263238" stroke-miterlimit="10"/>
<path d="M163.385 247.747C163.385 247.747 164.876 242.086 162.492 237.938" stroke="white" stroke-miterlimit="10"/>
<path d="M172.036 238.494C171.944 238.304 171.846 238.121 171.74 237.938C169.357 233.783 169.631 228.502 171.438 223.594" stroke="#263238" stroke-miterlimit="10"/>
<path d="M172.631 247.746C172.631 247.746 173.995 242.578 172.033 238.492" stroke="white" stroke-miterlimit="10"/>
<path d="M261.534 219.954C261.534 219.954 260.831 219.996 259.488 220.137C258.25 215.918 254.523 203.444 252.076 196.996C249.109 189.163 245.045 178.088 242.359 173.496C239.673 168.904 239.926 166.204 234.793 161.887C229.659 157.569 225.068 159.454 225.068 159.454C225.068 159.454 224.259 156.212 219.126 154.595C213.993 152.978 206.975 156.212 206.975 156.212C206.975 156.212 205.892 154.321 200.759 154.862C199.248 155.045 197.806 155.614 196.575 156.515C195.345 157.415 194.368 158.61 193.728 159.995C193.728 159.995 183.18 138.9 179.144 137.304C175.108 135.708 171.037 139.737 172.661 143.52C174.285 147.303 186.436 168.37 188.053 173.229C189.671 178.088 193.186 186.195 193.186 186.195C193.186 186.195 181.57 177.82 178.061 177.012C174.552 176.203 169.419 175.662 166.445 178.903C163.471 182.145 170.495 182.954 176.17 188.087C181.844 193.22 191.027 205.096 195.345 212.662C199.662 220.229 208.853 221.578 212.924 225.896C215.772 228.941 219.829 233.181 221.981 235.431C221.25 236.169 220.575 236.95 219.949 237.78L228.858 259.655C228.858 259.655 230.75 256.688 238.316 250.746C245.882 244.804 269.374 237.512 269.374 237.512L261.534 219.954Z" fill="#263238" stroke="#263238" stroke-miterlimit="10"/>
<path d="M223.121 231.317C223.121 231.317 216.638 224.567 212.573 220.249C208.509 215.932 199.34 214.575 194.994 207.009C190.649 199.443 181.487 187.566 175.819 182.433C170.152 177.3 163.127 176.492 166.094 173.25C169.062 170.008 174.244 170.564 177.76 171.358C181.276 172.153 192.885 180.542 192.885 180.542C192.885 180.542 189.369 172.441 187.752 167.582C186.135 162.723 173.963 141.65 172.345 137.867C170.728 134.083 174.771 130.033 178.821 131.658C182.872 133.282 193.412 154.342 193.412 154.342C194.045 152.956 195.03 151.761 196.26 150.861C197.491 149.961 198.932 149.398 200.444 149.216C205.577 148.674 206.66 150.566 206.66 150.566C206.66 150.566 213.692 147.324 218.811 148.941C223.93 150.559 224.753 153.807 224.753 153.807C224.753 153.807 229.344 151.916 234.477 156.233C239.61 160.551 239.336 163.265 242.036 167.849C244.737 172.434 248.794 183.516 251.761 191.349C254.729 199.183 259.594 215.925 259.594 215.925L224.738 234.833L223.121 231.317Z" fill="white" stroke="#263238" stroke-miterlimit="10"/>
<path d="M193.41 154.344L202.861 168.393" stroke="#263238" stroke-miterlimit="10"/>
<path d="M206.645 150.57L215.286 164.071" stroke="#263238" stroke-miterlimit="10"/>
<path d="M224.738 153.812L230.68 164.346" stroke="#263238" stroke-miterlimit="10"/>
<path d="M197.033 192.625L198.271 196.211" stroke="#263238" stroke-miterlimit="10"/>
<path d="M192.869 180.547L196.174 190.138" stroke="#263238" stroke-miterlimit="10"/>
<path d="M207.994 171.633L210.153 174.6" stroke="#263238" stroke-miterlimit="10"/>
<path d="M217.986 168.656L220.419 171.898" stroke="#263238" stroke-miterlimit="10"/>
<path d="M231.219 167.039L232.836 172.172" stroke="#263238" stroke-miterlimit="10"/>
<path d="M219.604 232.138C219.604 232.138 225.82 223.496 238.512 219.171C245.846 216.619 253.468 214.981 261.203 214.312L269.036 231.892C269.036 231.892 245.536 239.155 237.97 245.104C230.404 251.053 228.52 254.02 228.52 254.02L219.604 232.138Z" fill="white" stroke="#263238" stroke-miterlimit="10"/>
<path d="M240.945 290.472C240.945 290.472 230.679 264.813 227.979 259.413C225.279 254.013 229.603 251.312 229.603 251.312C229.603 251.312 235.812 242.938 252.02 236.454C268.228 229.971 269.6 229.704 273.622 234.296C277.644 238.887 304.252 290.549 304.252 290.549" fill="white"/>
<path d="M240.945 290.472C240.945 290.472 230.679 264.813 227.979 259.413C225.279 254.013 229.603 251.312 229.603 251.312C229.603 251.312 235.812 242.938 252.02 236.454C268.228 229.971 269.6 229.704 273.622 234.296C277.644 238.887 304.252 290.549 304.252 290.549" stroke="#263238" stroke-miterlimit="10"/>
<path d="M72.3392 263.475C75.1308 258.194 79.4624 253.891 84.7572 251.142C93.4976 246.684 99.179 244.764 107.547 236.509C115.914 228.254 129.704 220.884 135.385 219.872C141.067 218.859 142.958 216.405 140.511 213.621C138.064 210.836 131.37 210.674 125.428 212.685C119.487 214.696 113.974 217.158 113.974 217.158C116.99 211.223 118.994 204.072 121.962 198.116C124.071 193.897 127.524 186.907 129.577 182.646C130.913 179.869 134.893 175.242 133.093 172.204C131.293 169.166 127.052 171.184 124.894 174.082C121.462 178.694 104.678 204.001 104.678 204.001L114.248 183.75C119.093 173.491 121.399 168.597 120.717 170.052C122.123 167.057 124.88 163.021 123.199 159.596C122.82 158.795 122.229 158.113 121.498 157.613C120.759 157.114 119.901 156.826 119.015 156.777C118.129 156.72 117.25 156.903 116.456 157.311C115.668 157.719 115 158.324 114.529 159.076C112.195 162.873 94.3554 196.632 94.3554 196.632C94.3554 196.632 105.521 167.662 106.949 164.329C108.693 160.264 107.652 156.713 105.093 156.734C101.352 156.734 99.5869 160.904 98.1243 163.717L98.9401 162.529C95.4242 167.191 93.0966 173.308 90.1714 178.364C86.7751 184.278 83.2452 190.121 79.5958 195.88C80.2989 189.91 82.7107 184.313 85.6781 179.13C87.4712 176.008 94.932 168.337 93.6522 164.568C92.5553 161.319 84.3775 167.423 79.5889 174.082C77.0012 177.71 70.2016 187.61 68.3382 194.572C66.4748 201.533 53.3748 225.251 49.8801 231.84C46.3854 238.428 42.1875 250.122 42.1875 250.122L72.3392 263.475Z" fill="#263238" stroke="#263238" stroke-miterlimit="10"/>
<path d="M82.3181 257.106C82.3181 257.106 75.5818 248.865 62.6295 245.335C55.1548 243.24 47.4482 242.08 39.6852 241.883L32.9629 259.87C32.9629 259.87 56.8706 265.706 64.7812 271.17C72.6918 276.633 74.7659 279.481 74.7659 279.481L82.3181 257.106Z" fill="#263238" stroke="#263238" stroke-miterlimit="10"/>
<path d="M71.4537 260.351C74.2382 255.077 78.57 250.774 83.8649 248.024C92.6052 243.559 98.2936 241.64 106.654 233.392C115.015 225.144 128.811 217.767 134.5 216.748C140.188 215.728 142.073 213.288 139.619 210.497C137.165 207.705 130.478 207.557 124.536 209.568C118.594 211.579 113.067 214.033 113.067 214.033C116.084 208.099 118.088 200.955 121.055 194.992C123.165 190.773 126.624 183.79 128.67 179.522C130.006 176.744 133.986 172.118 132.186 169.087C130.386 166.056 126.153 168.06 123.994 170.965C120.563 175.577 103.778 200.877 103.778 200.877C106.964 194.127 110.149 187.376 113.342 180.633C118.186 170.374 120.5 165.48 119.81 166.928C121.217 163.94 123.98 159.932 122.3 156.479C121.92 155.678 121.33 154.995 120.591 154.496C119.86 153.997 119.002 153.709 118.116 153.652C117.23 153.603 116.344 153.786 115.556 154.187C114.769 154.595 114.101 155.199 113.623 155.952C111.288 159.756 93.449 193.515 93.449 193.515C93.449 193.515 104.615 164.537 106.042 161.212C107.786 157.14 106.746 153.596 104.186 153.617C100.445 153.617 98.6804 157.78 97.2178 160.6L98.0336 159.411C94.5178 164.066 92.1901 170.191 89.265 175.247C85.8546 181.153 82.3176 186.99 78.6612 192.756C79.3643 186.786 81.7765 181.196 84.7438 176.013C86.5369 172.891 93.9972 165.22 92.7245 161.444C91.6276 158.202 83.4427 164.299 78.6612 170.965C76.0665 174.593 69.2739 184.486 67.4105 191.455C65.5471 198.423 52.4471 222.127 48.9524 228.723C45.4576 235.318 41.2598 247.005 41.2598 247.005L71.4537 260.351Z" fill="white" stroke="#263238" stroke-miterlimit="10"/>
<path d="M93.4914 193.523L90.2637 200.042" stroke="#263238" stroke-miterlimit="10"/>
<path d="M103.82 200.883L101.303 204.145" stroke="#263238" stroke-miterlimit="10"/>
<path d="M113.08 214.039L109.846 218.75" stroke="#263238" stroke-miterlimit="10"/>
<path d="M96.3599 210.938L96.0996 213.743" stroke="#263238" stroke-miterlimit="10"/>
<path d="M88.3008 205.828L88.3149 208.535" stroke="#263238" stroke-miterlimit="10"/>
<path d="M76.4453 200.18L77.0994 204.785" stroke="#263238" stroke-miterlimit="10"/>
<path d="M81.4245 253.99C81.4245 253.99 74.6882 245.749 61.7359 242.219C54.2682 240.13 46.5685 238.97 38.8126 238.773L32.0762 256.775C32.0762 256.775 55.9838 262.604 63.8945 268.067C71.8051 273.531 73.8796 276.386 73.8796 276.386L81.4245 253.99Z" fill="white" stroke="#263238" stroke-miterlimit="10"/>
<path d="M70.7076 292.915C70.7076 292.915 72.3882 287.29 74.7508 281.728C77.1135 276.166 72.6413 273.74 72.6413 273.74C72.6413 273.74 65.9191 265.766 49.3455 260.295C32.7719 254.825 31.4078 254.635 27.6459 259.465C23.8839 264.296 11.8105 293.351 11.8105 293.351" fill="white"/>
<path d="M70.7076 292.915C70.7076 292.915 72.3882 287.29 74.7508 281.728C77.1135 276.166 72.6413 273.74 72.6413 273.74C72.6413 273.74 65.9191 265.766 49.3455 260.295C32.7719 254.825 31.4078 254.635 27.6459 259.465C23.8839 264.296 11.8105 293.351 11.8105 293.351" stroke="#263238" stroke-miterlimit="10"/>
</svg>
