<svg width="567" height="315" viewBox="0 0 567 315" fill="none" xmlns="http://www.w3.org/2000/svg">
<path opacity="0.6" d="M566.919 63.8821C557.572 76.8841 543.742 85.9651 528.096 89.3731C512.45 92.7811 496.096 90.2751 482.188 82.3381C468.28 74.4021 457.803 61.5961 452.779 46.392C447.754 31.1876 448.537 14.6612 454.977 0L484.089 12.7871C480.809 20.2541 480.41 28.671 482.97 36.4146C485.529 44.1582 490.864 50.68 497.948 54.7223C505.031 58.7645 513.36 60.0408 521.329 58.3051C529.297 56.5694 536.341 51.9445 541.102 45.3225L566.919 63.8821Z" fill="white"/>
<path opacity="0.3" d="M0 307.924C3.4349 264.413 22.859 223.715 54.5263 193.678C86.1933 163.642 127.861 146.395 171.493 145.263C215.124 144.131 257.63 159.196 290.812 187.55C323.993 215.905 345.501 255.541 351.187 298.816L265.258 310.106C262.362 288.066 251.409 267.879 234.509 253.438C217.61 238.997 195.961 231.325 173.74 231.901C151.518 232.477 130.297 241.261 114.168 256.559C98.0403 271.857 88.1473 292.584 86.3983 314.745L0 307.924Z" fill="white"/>
</svg>
