<svg width="146" height="146" viewBox="0 0 146 146" fill="none" xmlns="http://www.w3.org/2000/svg">
<path d="M52.539 2.95002C52.539 3.63028 52.539 5.86879 52.539 5.86879C52.539 5.86879 50.5519 5.86879 49.6202 5.86865C48.8925 5.86879 46.7014 5.86865 46.7014 5.86865C46.7014 5.86865 46.7014 3.83437 46.7014 2.94995C46.7015 1.33805 48.0082 0.03125 49.6201 0.03125C51.2321 0.03125 52.539 1.33804 52.539 2.95002Z" fill="#221D1C"/>
<path d="M67.1336 0.03125C68.7457 0.03125 70.0524 1.33804 70.0524 2.95002C70.0524 4.56208 68.7457 5.86879 67.1336 5.86879C65.5216 5.86879 64.2148 4.56208 64.2148 2.95002C64.2148 1.33804 65.5216 0.03125 67.1336 0.03125Z" fill="#221D1C"/>
<path d="M75.8892 5.86879H81.7267V0.03125C78.5028 0.0312617 75.8892 2.64476 75.8892 5.86879Z" fill="#221D1C"/>
<path d="M84.6451 5.86879C83.9648 5.86879 81.7263 5.86879 81.7263 5.86879C81.7263 5.86879 81.7263 3.88161 81.7263 2.95002C81.7263 2.22238 81.7263 0.03125 81.7263 0.03125C81.7263 0.03125 83.7608 0.03125 84.6451 0.03125C86.257 0.03125 87.5639 1.33803 87.5639 2.95002C87.5639 4.56193 86.257 5.86879 84.6451 5.86879Z" fill="#221D1C"/>
<path d="M52.539 5.86719H46.7014V11.7047H52.539V5.86719Z" fill="#221D1C"/>
<path d="M58.3761 5.86719H52.5386V11.7047H58.3761V5.86719Z" fill="#221D1C"/>
<path d="M61.2945 11.7047C60.6142 11.7047 58.3757 11.7047 58.3757 11.7047C58.3757 11.7047 58.3757 9.71755 58.3757 8.78596C58.3757 8.05832 58.3757 5.86719 58.3757 5.86719C58.3757 5.86719 60.4102 5.86719 61.2945 5.86719C62.9064 5.86719 64.2133 7.17397 64.2133 8.78596C64.2133 10.3979 62.9064 11.7047 61.2945 11.7047Z" fill="#221D1C"/>
<path d="M72.9708 5.86719C73.6511 5.86719 75.8895 5.86719 75.8895 5.86719C75.8895 5.86719 75.8895 7.85408 75.8895 8.78596C75.8895 9.51337 75.8895 11.7047 75.8895 11.7047C75.8895 11.7047 73.8555 11.7047 72.9708 11.7047C71.3582 11.7047 70.052 10.3974 70.052 8.78596C70.052 7.17436 71.3582 5.86719 72.9708 5.86719Z" fill="#221D1C"/>
<path d="M81.7267 5.86719H75.8892V11.7047H81.7267V5.86719Z" fill="#221D1C"/>
<path d="M46.7014 14.6219C46.7014 13.9416 46.7014 11.7031 46.7014 11.7031C46.7014 11.7031 48.6885 11.7031 49.6202 11.7031C50.3478 11.7031 52.539 11.7031 52.539 11.7031C52.539 11.7031 52.539 13.7376 52.539 14.6219C52.539 16.2338 51.2321 17.5407 49.6202 17.5407C48.0082 17.5407 46.7014 16.2338 46.7014 14.6219Z" fill="#221D1C"/>
<path d="M70.0524 14.6219C70.0524 15.3022 70.0524 17.5407 70.0524 17.5407C70.0524 17.5407 68.0654 17.5407 67.1336 17.5405C66.406 17.5407 64.2148 17.5405 64.2148 17.5405C64.2148 17.5405 64.2148 15.5062 64.2148 14.6218C64.2149 13.0099 65.5216 11.7031 67.1335 11.7031C68.7455 11.7031 70.0524 13.0099 70.0524 14.6219Z" fill="#221D1C"/>
<path d="M81.7267 11.7031H75.8892V17.5407H81.7267V11.7031Z" fill="#221D1C"/>
<path d="M87.5639 11.7031H81.7263V17.5407H87.5639V11.7031Z" fill="#221D1C"/>
<path d="M87.5659 11.7031V17.5407H93.4035C93.4035 14.3166 90.7899 11.7031 87.5659 11.7031Z" fill="#221D1C"/>
<path d="M55.4573 17.5469C56.1376 17.5469 58.3761 17.5469 58.3761 17.5469C58.3761 17.5469 58.3761 19.5338 58.3761 20.4656C58.3761 21.1931 58.3761 23.3844 58.3761 23.3844C58.3761 23.3844 56.3421 23.3844 55.4573 23.3844C53.8448 23.3844 52.5386 22.077 52.5386 20.4656C52.5386 18.8541 53.8448 17.5469 55.4573 17.5469Z" fill="#221D1C"/>
<path d="M64.2133 17.5469H58.3757V23.3844H64.2133V17.5469Z" fill="#221D1C"/>
<path d="M70.0524 17.5469H64.2148V23.3844H70.0524V17.5469Z" fill="#221D1C"/>
<path d="M75.8895 17.5469H70.052V23.3844H75.8895V17.5469Z" fill="#221D1C"/>
<path d="M81.7267 17.5469H75.8892V23.3844H81.7267V17.5469Z" fill="#221D1C"/>
<path d="M87.5639 17.5469H81.7263V23.3844H87.5639V17.5469Z" fill="#221D1C"/>
<path d="M93.403 17.5469H87.5654V23.3844H93.403V17.5469Z" fill="#221D1C"/>
<path d="M93.4028 17.5469V23.3844H99.2404C99.2404 20.1604 96.6268 17.5469 93.4028 17.5469Z" fill="#221D1C"/>
<path d="M49.6202 23.3828C51.2322 23.3828 52.539 24.6896 52.539 26.3016C52.539 27.9136 51.2322 29.2204 49.6202 29.2204C48.0082 29.2204 46.7014 27.9136 46.7014 26.3016C46.7014 24.6896 48.0082 23.3828 49.6202 23.3828Z" fill="#221D1C"/>
<path d="M64.2133 23.3828H58.3757V29.2204H64.2133V23.3828Z" fill="#221D1C"/>
<path d="M81.7267 23.3828H75.8892V29.2204H81.7267V23.3828Z" fill="#221D1C"/>
<path d="M87.5639 23.3828H81.7263V29.2204H87.5639V23.3828Z" fill="#221D1C"/>
<path d="M93.4028 26.3016C93.4028 25.6213 93.4028 23.3828 93.4028 23.3828C93.4028 23.3828 95.3899 23.3828 96.3216 23.3828C97.0492 23.3828 99.2404 23.3828 99.2404 23.3828C99.2404 23.3828 99.2404 25.4173 99.2404 26.3016C99.2404 27.9135 97.9335 29.2204 96.3216 29.2204C94.7096 29.2204 93.4028 27.9135 93.4028 26.3016Z" fill="#221D1C"/>
<path d="M55.4573 29.2188C56.1376 29.2188 58.3761 29.2188 58.3761 29.2188C58.3761 29.2188 58.3761 31.2056 58.3761 32.1375C58.3761 32.8649 58.3761 35.0563 58.3761 35.0563C58.3761 35.0563 56.3421 35.0563 55.4573 35.0563C53.8448 35.0563 52.5386 33.7489 52.5386 32.1375C52.5386 30.5259 53.8448 29.2188 55.4573 29.2188Z" fill="#221D1C"/>
<path d="M64.2133 29.2188H58.3757V35.0563H64.2133V29.2188Z" fill="#221D1C"/>
<path d="M70.0524 29.2188H64.2148V35.0563H70.0524V29.2188Z" fill="#221D1C"/>
<path d="M75.8895 29.2188H70.052V35.0563H75.8895V29.2188Z" fill="#221D1C"/>
<path d="M81.7267 29.2188H75.8892V35.0563H81.7267V29.2188Z" fill="#221D1C"/>
<path d="M87.5639 29.2188H81.7263V35.0563H87.5639V29.2188Z" fill="#221D1C"/>
<path d="M49.6202 35.0547C51.2322 35.0547 52.539 36.3615 52.539 37.9735C52.539 39.5855 51.2322 40.8922 49.6202 40.8922C48.0082 40.8922 46.7014 39.5855 46.7014 37.9735C46.7014 36.3615 48.0082 35.0547 49.6202 35.0547Z" fill="#221D1C"/>
<path d="M58.3757 37.9735C58.3757 37.2931 58.3757 35.0547 58.3757 35.0547C58.3757 35.0547 60.3628 35.0547 61.2945 35.0547C62.0221 35.0547 64.2133 35.0547 64.2133 35.0547C64.2133 35.0547 64.2133 37.0892 64.2133 37.9735C64.2133 39.5854 62.9064 40.8922 61.2945 40.8922C59.6825 40.8922 58.3757 39.5854 58.3757 37.9735Z" fill="#221D1C"/>
<path d="M75.8895 35.0547H70.052V40.8922H75.8895V35.0547Z" fill="#221D1C"/>
<path d="M87.5639 35.0547H81.7263V40.8922H87.5639V35.0547Z" fill="#221D1C"/>
<path d="M99.2404 37.9735C99.2404 38.6537 99.2404 40.8922 99.2404 40.8922C99.2404 40.8922 97.2533 40.8922 96.3216 40.8921C95.594 40.8922 93.4028 40.8921 93.4028 40.8921C93.4028 40.8921 93.4028 38.8578 93.4028 37.9734C93.4029 36.3615 94.7096 35.0547 96.3215 35.0547C97.9335 35.0547 99.2404 36.3615 99.2404 37.9735Z" fill="#221D1C"/>
<path d="M58.3761 43.8172C58.3761 44.4975 58.3761 46.736 58.3761 46.736C58.3761 46.736 56.3891 46.736 55.4573 46.7358C54.7297 46.736 52.5386 46.7358 52.5386 46.7358C52.5386 46.7358 52.5386 44.7016 52.5386 43.8171C52.5386 42.2052 53.8454 40.8984 55.4573 40.8984C57.0693 40.8984 58.3761 42.2052 58.3761 43.8172Z" fill="#221D1C"/>
<path d="M75.8895 40.8984H70.052V46.736H75.8895V40.8984Z" fill="#221D1C"/>
<path d="M81.7267 40.8984H75.8892V46.736H81.7267V40.8984Z" fill="#221D1C"/>
<path d="M87.5639 40.8984H81.7263V46.736H87.5639V40.8984Z" fill="#221D1C"/>
<path d="M93.403 40.8984H87.5654V46.736H93.403V40.8984Z" fill="#221D1C"/>
<path d="M99.2404 40.8984H93.4028V46.736H99.2404V40.8984Z" fill="#221D1C"/>
<path d="M2.91926 46.7344C4.53132 46.7344 5.83803 48.0412 5.83803 49.6531C5.83803 51.2652 4.53132 52.5719 2.91926 52.5719C1.30728 52.5719 0.000488281 51.2652 0.000488281 49.6531C0.000488281 48.0412 1.30728 46.7344 2.91926 46.7344Z" fill="#221D1C"/>
<path d="M17.5137 52.5797H23.3512V46.7422C20.1273 46.7422 17.5137 49.3557 17.5137 52.5797Z" fill="#221D1C"/>
<path d="M29.1886 46.7344H23.3511V52.5719H29.1886V46.7344Z" fill="#221D1C"/>
<path d="M35.0277 46.7344H29.1902V52.5719H35.0277V46.7344Z" fill="#221D1C"/>
<path d="M40.8649 46.7344H35.0273V52.5719H40.8649V46.7344Z" fill="#221D1C"/>
<path d="M46.7018 46.7344H40.8643V52.5719H46.7018V46.7344Z" fill="#221D1C"/>
<path d="M52.539 46.7344H46.7014V52.5719H52.539V46.7344Z" fill="#221D1C"/>
<path d="M58.3761 46.7344H52.5386V52.5719H58.3761V46.7344Z" fill="#221D1C"/>
<path d="M64.2153 52.5797H70.0529V46.7422C66.8289 46.7422 64.2153 49.3557 64.2153 52.5797Z" fill="#221D1C"/>
<path d="M75.8898 46.7422H70.0522V52.5797C73.2762 52.5797 75.8898 49.9662 75.8898 46.7422Z" fill="#221D1C"/>
<path d="M87.5639 46.7344H81.7263V52.5719H87.5639V46.7344Z" fill="#221D1C"/>
<path d="M93.403 46.7344H87.5654V52.5719H93.403V46.7344Z" fill="#221D1C"/>
<path d="M99.2404 46.7344H93.4028V52.5719H99.2404V46.7344Z" fill="#221D1C"/>
<path d="M99.2397 46.7422V52.5797H105.077C105.077 49.3557 102.464 46.7422 99.2397 46.7422Z" fill="#221D1C"/>
<path d="M122.589 49.6531C122.589 50.3334 122.589 52.5719 122.589 52.5719C122.589 52.5719 120.602 52.5719 119.67 52.5718C118.942 52.5719 116.751 52.5718 116.751 52.5718C116.751 52.5718 116.751 50.5375 116.751 49.6531C116.751 48.0412 118.058 46.7344 119.67 46.7344C121.282 46.7344 122.589 48.0412 122.589 49.6531Z" fill="#221D1C"/>
<path d="M128.428 52.5797H134.265V46.7422C131.041 46.7422 128.428 49.3557 128.428 52.5797Z" fill="#221D1C"/>
<path d="M140.102 46.7344H134.265V52.5719H140.102V46.7344Z" fill="#221D1C"/>
<path d="M143.021 52.5719C142.34 52.5719 140.102 52.5719 140.102 52.5719C140.102 52.5719 140.102 50.5847 140.102 49.6531C140.102 48.9255 140.102 46.7344 140.102 46.7344C140.102 46.7344 142.136 46.7344 143.021 46.7344C144.632 46.7344 145.939 48.0412 145.939 49.6531C145.939 51.2651 144.632 52.5719 143.021 52.5719Z" fill="#221D1C"/>
<path d="M5.83984 58.4079H11.6774V52.5703C8.45344 52.5703 5.83984 55.1838 5.83984 58.4079Z" fill="#221D1C"/>
<path d="M17.5143 52.5703H11.6768V58.4079H17.5143V52.5703Z" fill="#221D1C"/>
<path d="M23.3515 52.5703H17.5139V58.4079H23.3515V52.5703Z" fill="#221D1C"/>
<path d="M29.1886 52.5703H23.3511V58.4079H29.1886V52.5703Z" fill="#221D1C"/>
<path d="M46.7018 52.5703H40.8643V58.4079H46.7018V52.5703Z" fill="#221D1C"/>
<path d="M58.3761 58.4079V52.5703H52.5386C52.5386 55.7943 55.1521 58.4079 58.3761 58.4079Z" fill="#221D1C"/>
<path d="M64.2133 52.5703H58.3757V58.4079H64.2133V52.5703Z" fill="#221D1C"/>
<path d="M70.0529 52.5703H64.2153V58.4079C67.4393 58.4079 70.0529 55.7943 70.0529 52.5703Z" fill="#221D1C"/>
<path d="M87.5639 52.5703H81.7263V58.4079H87.5639V52.5703Z" fill="#221D1C"/>
<path d="M93.403 52.5703H87.5654V58.4079H93.403V52.5703Z" fill="#221D1C"/>
<path d="M99.24 55.4891C99.24 54.8088 99.24 52.5703 99.24 52.5703C99.24 52.5703 101.227 52.5703 102.159 52.5703C102.886 52.5703 105.078 52.5703 105.078 52.5703C105.078 52.5703 105.078 54.6048 105.078 55.4891C105.078 57.101 103.771 58.4079 102.159 58.4079C100.547 58.4079 99.24 57.101 99.24 55.4891Z" fill="#221D1C"/>
<path d="M110.914 58.4079H116.751V52.5703C113.527 52.5703 110.914 55.1838 110.914 58.4079Z" fill="#221D1C"/>
<path d="M122.589 52.5703H116.751V58.4079H122.589V52.5703Z" fill="#221D1C"/>
<path d="M128.428 52.5703H122.59V58.4079H128.428V52.5703Z" fill="#221D1C"/>
<path d="M134.265 52.5703H128.427V58.4079H134.265V52.5703Z" fill="#221D1C"/>
<path d="M140.102 52.5703H134.265V58.4079C137.489 58.4079 140.102 55.7943 140.102 52.5703Z" fill="#221D1C"/>
<path d="M2.91926 58.4141C3.59956 58.4141 5.83803 58.4141 5.83803 58.4141C5.83803 58.4141 5.83803 60.401 5.83803 61.3328C5.83803 62.0602 5.83803 64.2516 5.83803 64.2516C5.83803 64.2516 3.80401 64.2516 2.91926 64.2516C1.30671 64.2516 0.000488281 62.9442 0.000488281 61.3328C0.000488281 59.7212 1.30671 58.4141 2.91926 58.4141Z" fill="#221D1C"/>
<path d="M11.6771 58.4141H5.8396V64.2516H11.6771V58.4141Z" fill="#221D1C"/>
<path d="M23.3515 58.4141H17.5139V64.2516H23.3515V58.4141Z" fill="#221D1C"/>
<path d="M29.1886 58.4141H23.3511V64.2516H29.1886V58.4141Z" fill="#221D1C"/>
<path d="M35.0277 58.4141H29.1902V64.2516H35.0277V58.4141Z" fill="#221D1C"/>
<path d="M40.8649 58.4141H35.0273V64.2516H40.8649V58.4141Z" fill="#221D1C"/>
<path d="M46.7018 58.4141H40.8643V64.2516H46.7018V58.4141Z" fill="#221D1C"/>
<path d="M78.8079 58.4141C79.4882 58.4141 81.7267 58.4141 81.7267 58.4141C81.7267 58.4141 81.7267 60.401 81.7267 61.3328C81.7267 62.0602 81.7267 64.2516 81.7267 64.2516C81.7267 64.2516 79.6927 64.2516 78.8079 64.2516C77.1954 64.2516 75.8892 62.9442 75.8892 61.3328C75.8892 59.7212 77.1954 58.4141 78.8079 58.4141Z" fill="#221D1C"/>
<path d="M87.5639 58.4141H81.7263V64.2516H87.5639V58.4141Z" fill="#221D1C"/>
<path d="M93.403 58.4141H87.5654V64.2516H93.403V58.4141Z" fill="#221D1C"/>
<path d="M96.3216 64.2516C95.6413 64.2516 93.4028 64.2516 93.4028 64.2516C93.4028 64.2516 93.4028 62.2644 93.4028 61.3328C93.4028 60.6052 93.4028 58.4141 93.4028 58.4141C93.4028 58.4141 95.4373 58.4141 96.3216 58.4141C97.9335 58.4141 99.2404 59.7208 99.2404 61.3328C99.2404 62.9447 97.9335 64.2516 96.3216 64.2516Z" fill="#221D1C"/>
<path d="M107.996 58.4141C108.676 58.4141 110.915 58.4141 110.915 58.4141C110.915 58.4141 110.915 60.401 110.915 61.3328C110.915 62.0602 110.915 64.2516 110.915 64.2516C110.915 64.2516 108.881 64.2516 107.996 64.2516C106.383 64.2516 105.077 62.9442 105.077 61.3328C105.077 59.7212 106.383 58.4141 107.996 58.4141Z" fill="#221D1C"/>
<path d="M116.752 58.4141H110.914V64.2516H116.752V58.4141Z" fill="#221D1C"/>
<path d="M128.428 58.4141H122.59V64.2516H128.428V58.4141Z" fill="#221D1C"/>
<path d="M145.939 61.3328C145.939 62.0131 145.939 64.2516 145.939 64.2516C145.939 64.2516 143.952 64.2516 143.021 64.2515C142.293 64.2516 140.102 64.2515 140.102 64.2515C140.102 64.2515 140.102 62.2172 140.102 61.3328C140.102 59.7209 141.409 58.4141 143.021 58.4141C144.632 58.4141 145.939 59.7209 145.939 61.3328Z" fill="#221D1C"/>
<path d="M11.6774 70.0797V64.2422H5.83984C5.83986 67.4662 8.45334 70.0797 11.6774 70.0797Z" fill="#221D1C"/>
<path d="M17.5143 64.2422H11.6768V70.0797H17.5143V64.2422Z" fill="#221D1C"/>
<path d="M23.3519 64.2422H17.5144V70.0797C20.7384 70.0797 23.3519 67.4662 23.3519 64.2422Z" fill="#221D1C"/>
<path d="M46.7018 64.2422H40.8643V70.0797H46.7018V64.2422Z" fill="#221D1C"/>
<path d="M52.5387 64.2422H46.7012V70.0797H52.5387V64.2422Z" fill="#221D1C"/>
<path d="M58.3764 64.2422H52.5388V70.0797H58.3764V64.2422Z" fill="#221D1C"/>
<path d="M61.2945 70.0797C60.6142 70.0797 58.3757 70.0797 58.3757 70.0797C58.3757 70.0797 58.3757 68.0925 58.3757 67.161C58.3757 66.4333 58.3757 64.2422 58.3757 64.2422C58.3757 64.2422 60.4102 64.2422 61.2945 64.2422C62.9064 64.2422 64.2133 65.549 64.2133 67.161C64.2133 68.7729 62.9064 70.0797 61.2945 70.0797Z" fill="#221D1C"/>
<path d="M87.5636 70.0797V64.2422H81.7261C81.7261 67.4662 84.3396 70.0797 87.5636 70.0797Z" fill="#221D1C"/>
<path d="M93.4035 64.2422H87.5659V70.0797C90.7899 70.0797 93.4035 67.4662 93.4035 64.2422Z" fill="#221D1C"/>
<path d="M110.914 67.161C110.914 66.4806 110.914 64.2422 110.914 64.2422C110.914 64.2422 112.901 64.2422 113.833 64.2422C114.56 64.2422 116.752 64.2422 116.752 64.2422C116.752 64.2422 116.752 66.2767 116.752 67.161C116.752 68.7729 115.445 70.0797 113.833 70.0797C112.221 70.0797 110.914 68.7729 110.914 67.161Z" fill="#221D1C"/>
<path d="M128.428 70.0797V64.2422H122.591C122.591 67.4662 125.204 70.0797 128.428 70.0797Z" fill="#221D1C"/>
<path d="M134.265 64.2422H128.427V70.0797H134.265V64.2422Z" fill="#221D1C"/>
<path d="M140.102 64.2422H134.265V70.0797H140.102V64.2422Z" fill="#221D1C"/>
<path d="M145.939 64.2422H140.102V70.0797H145.939V64.2422Z" fill="#221D1C"/>
<path d="M17.5143 70.0859H11.6768V75.9235H17.5143V70.0859Z" fill="#221D1C"/>
<path d="M29.1904 75.9235H35.028V70.0859C31.804 70.0859 29.1904 72.6995 29.1904 75.9235Z" fill="#221D1C"/>
<path d="M40.8649 70.0859H35.0273V75.9235H40.8649V70.0859Z" fill="#221D1C"/>
<path d="M46.7018 70.0859H40.8643V75.9235H46.7018V70.0859Z" fill="#221D1C"/>
<path d="M52.5386 73.0047C52.5386 72.3244 52.5386 70.0859 52.5386 70.0859C52.5386 70.0859 54.5257 70.0859 55.4573 70.0859C56.185 70.0859 58.3761 70.0859 58.3761 70.0859C58.3761 70.0859 58.3761 72.1204 58.3761 73.0047C58.3761 74.6166 57.0693 75.9235 55.4573 75.9235C53.8454 75.9235 52.5386 74.6166 52.5386 73.0047Z" fill="#221D1C"/>
<path d="M72.9708 70.0859C74.5828 70.0859 75.8895 71.3927 75.8895 73.0047C75.8895 74.6168 74.5828 75.9235 72.9708 75.9235C71.3588 75.9235 70.052 74.6168 70.052 73.0047C70.052 71.3927 71.3588 70.0859 72.9708 70.0859Z" fill="#221D1C"/>
<path d="M99.2404 73.0047C99.2404 73.685 99.2404 75.9235 99.2404 75.9235C99.2404 75.9235 97.2533 75.9235 96.3216 75.9233C95.594 75.9235 93.4028 75.9233 93.4028 75.9233C93.4028 75.9233 93.4028 73.8891 93.4028 73.0046C93.4029 71.3927 94.7096 70.0859 96.3215 70.0859C97.9335 70.0859 99.2404 71.3927 99.2404 73.0047Z" fill="#221D1C"/>
<path d="M107.996 70.0859C109.608 70.0859 110.915 71.3927 110.915 73.0047C110.915 74.6168 109.608 75.9235 107.996 75.9235C106.384 75.9235 105.077 74.6168 105.077 73.0047C105.077 71.3927 106.384 70.0859 107.996 70.0859Z" fill="#221D1C"/>
<path d="M140.102 73.0047C140.102 72.3244 140.102 70.0859 140.102 70.0859C140.102 70.0859 142.089 70.0859 143.021 70.0859C143.748 70.0859 145.939 70.0859 145.939 70.0859C145.939 70.0859 145.939 72.1204 145.939 73.0047C145.939 74.6166 144.632 75.9235 143.021 75.9235C141.409 75.9235 140.102 74.6166 140.102 73.0047Z" fill="#221D1C"/>
<path d="M0 81.7516H5.83754V75.9141C2.61359 75.9141 0 78.5276 0 81.7516Z" fill="#221D1C"/>
<path d="M11.6771 75.9219H5.8396V81.7594H11.6771V75.9219Z" fill="#221D1C"/>
<path d="M17.5143 75.9219H11.6768V81.7594H17.5143V75.9219Z" fill="#221D1C"/>
<path d="M23.3506 81.7516H29.1881V75.9141C25.9642 75.9141 23.3506 78.5276 23.3506 81.7516Z" fill="#221D1C"/>
<path d="M35.0277 75.9219H29.1902V81.7594H35.0277V75.9219Z" fill="#221D1C"/>
<path d="M40.8643 78.8406C40.8643 78.1603 40.8643 75.9219 40.8643 75.9219C40.8643 75.9219 42.8514 75.9219 43.783 75.9219C44.5107 75.9219 46.7018 75.9219 46.7018 75.9219C46.7018 75.9219 46.7018 77.9564 46.7018 78.8406C46.7018 80.4526 45.3949 81.7594 43.783 81.7594C42.171 81.7594 40.8643 80.4526 40.8643 78.8406Z" fill="#221D1C"/>
<path d="M81.7261 81.7516H87.5636V75.9141C84.3397 75.9141 81.7261 78.5276 81.7261 81.7516Z" fill="#221D1C"/>
<path d="M93.403 75.9219H87.5654V81.7594H93.403V75.9219Z" fill="#221D1C"/>
<path d="M99.2404 75.9219H93.4028V81.7594H99.2404V75.9219Z" fill="#221D1C"/>
<path d="M99.2397 75.9141V81.7516H105.077C105.077 78.5276 102.464 75.9141 99.2397 75.9141Z" fill="#221D1C"/>
<path d="M122.589 78.8406C122.589 79.5209 122.589 81.7594 122.589 81.7594C122.589 81.7594 120.602 81.7594 119.67 81.7593C118.942 81.7594 116.751 81.7593 116.751 81.7593C116.751 81.7593 116.751 79.725 116.751 78.8406C116.751 77.2287 118.058 75.9219 119.67 75.9219C121.282 75.9219 122.589 77.2287 122.589 78.8406Z" fill="#221D1C"/>
<path d="M140.102 78.8406C140.102 79.5209 140.102 81.7594 140.102 81.7594C140.102 81.7594 138.115 81.7594 137.183 81.7593C136.456 81.7594 134.265 81.7593 134.265 81.7593C134.265 81.7593 134.265 79.725 134.265 78.8406C134.265 77.2287 135.571 75.9219 137.183 75.9219C138.795 75.9219 140.102 77.2287 140.102 78.8406Z" fill="#221D1C"/>
<path d="M5.83803 81.7578H0.000488281V87.5954H5.83803V81.7578Z" fill="#221D1C"/>
<path d="M11.6771 81.7578H5.8396V87.5954H11.6771V81.7578Z" fill="#221D1C"/>
<path d="M17.5143 81.7578H11.6768V87.5954H17.5143V81.7578Z" fill="#221D1C"/>
<path d="M23.3519 81.7578H17.5144V87.5954H23.3519V81.7578Z" fill="#221D1C"/>
<path d="M29.1886 81.7578H23.3511V87.5954H29.1886V81.7578Z" fill="#221D1C"/>
<path d="M35.0277 81.7578H29.1902V87.5954H35.0277V81.7578Z" fill="#221D1C"/>
<path d="M37.9461 87.5954C37.2658 87.5954 35.0273 87.5954 35.0273 87.5954C35.0273 87.5954 35.0273 85.6082 35.0273 84.6766C35.0273 83.9489 35.0273 81.7578 35.0273 81.7578C35.0273 81.7578 37.0619 81.7578 37.9461 81.7578C39.558 81.7578 40.8649 83.0646 40.8649 84.6766C40.8649 86.2885 39.558 87.5954 37.9461 87.5954Z" fill="#221D1C"/>
<path d="M49.6199 81.7578C50.3002 81.7578 52.5387 81.7578 52.5387 81.7578C52.5387 81.7578 52.5387 83.7447 52.5387 84.6766C52.5387 85.404 52.5387 87.5954 52.5387 87.5954C52.5387 87.5954 50.5047 87.5954 49.6199 87.5954C48.0074 87.5954 46.7012 86.288 46.7012 84.6766C46.7012 83.065 48.0074 81.7578 49.6199 81.7578Z" fill="#221D1C"/>
<path d="M52.5388 81.7578V87.5954H58.3764C58.3764 84.3713 55.7628 81.7578 52.5388 81.7578Z" fill="#221D1C"/>
<path d="M64.2153 87.5954H70.0529V81.7578C66.8289 81.7578 64.2153 84.3713 64.2153 87.5954Z" fill="#221D1C"/>
<path d="M72.9705 87.5954C72.2902 87.5954 70.0518 87.5954 70.0518 87.5954C70.0518 87.5954 70.0518 85.6082 70.0518 84.6766C70.0518 83.9489 70.0518 81.7578 70.0518 81.7578C70.0518 81.7578 72.0863 81.7578 72.9705 81.7578C74.5824 81.7578 75.8893 83.0646 75.8893 84.6766C75.8893 86.2885 74.5824 87.5954 72.9705 87.5954Z" fill="#221D1C"/>
<path d="M87.5636 87.5954V81.7578H81.7261C81.7261 84.9818 84.3396 87.5954 87.5636 87.5954Z" fill="#221D1C"/>
<path d="M93.403 81.7578H87.5654V87.5954H93.403V81.7578Z" fill="#221D1C"/>
<path d="M105.078 81.7578H99.24V87.5954H105.078V81.7578Z" fill="#221D1C"/>
<path d="M107.996 87.5954C107.316 87.5954 105.077 87.5954 105.077 87.5954C105.077 87.5954 105.077 85.6082 105.077 84.6766C105.077 83.9489 105.077 81.7578 105.077 81.7578C105.077 81.7578 107.112 81.7578 107.996 81.7578C109.608 81.7578 110.915 83.0646 110.915 84.6766C110.915 86.2885 109.608 87.5954 107.996 87.5954Z" fill="#221D1C"/>
<path d="M122.588 87.5954V81.7578H116.751C116.751 84.9818 119.364 87.5954 122.588 87.5954Z" fill="#221D1C"/>
<path d="M128.428 81.7578H122.59V87.5954H128.428V81.7578Z" fill="#221D1C"/>
<path d="M134.265 81.7578H128.427V87.5954H134.265V81.7578Z" fill="#221D1C"/>
<path d="M140.102 81.7578H134.265V87.5954H140.102V81.7578Z" fill="#221D1C"/>
<path d="M140.102 81.7578V87.5954H145.939C145.939 84.3713 143.326 81.7578 140.102 81.7578Z" fill="#221D1C"/>
<path d="M5.83803 87.5938H0.000488281V93.4313H5.83803V87.5938Z" fill="#221D1C"/>
<path d="M17.5143 87.5938H11.6768V93.4313H17.5143V87.5938Z" fill="#221D1C"/>
<path d="M29.1881 93.4313V87.5938H23.3506C23.3506 90.8177 25.9641 93.4313 29.1881 93.4313Z" fill="#221D1C"/>
<path d="M35.0277 87.5938H29.1902V93.4313H35.0277V87.5938Z" fill="#221D1C"/>
<path d="M46.7018 90.5125C46.7018 91.1928 46.7018 93.4313 46.7018 93.4313C46.7018 93.4313 44.7148 93.4313 43.783 93.4311C43.0554 93.4313 40.8643 93.4311 40.8643 93.4311C40.8643 93.4311 40.8643 91.3969 40.8643 90.5124C40.8643 88.9006 42.171 87.5938 43.783 87.5938C45.3949 87.5938 46.7018 88.9005 46.7018 90.5125Z" fill="#221D1C"/>
<path d="M58.3761 87.5938H52.5386V93.4313H58.3761V87.5938Z" fill="#221D1C"/>
<path d="M64.2148 90.5125C64.2148 89.8322 64.2148 87.5938 64.2148 87.5938C64.2148 87.5938 66.202 87.5938 67.1336 87.5938C67.8613 87.5938 70.0524 87.5938 70.0524 87.5938C70.0524 87.5938 70.0524 89.6283 70.0524 90.5125C70.0524 92.1244 68.7455 93.4313 67.1336 93.4313C65.5216 93.4313 64.2148 92.1244 64.2148 90.5125Z" fill="#221D1C"/>
<path d="M87.5654 90.5125C87.5654 89.8322 87.5654 87.5938 87.5654 87.5938C87.5654 87.5938 89.5525 87.5938 90.4842 87.5938C91.2118 87.5938 93.403 87.5938 93.403 87.5938C93.403 87.5938 93.403 89.6283 93.403 90.5125C93.403 92.1244 92.0961 93.4313 90.4842 93.4313C88.8722 93.4313 87.5654 92.1244 87.5654 90.5125Z" fill="#221D1C"/>
<path d="M105.078 87.5938H99.24V93.4313H105.078V87.5938Z" fill="#221D1C"/>
<path d="M116.752 90.5125C116.752 91.1928 116.752 93.4313 116.752 93.4313C116.752 93.4313 114.765 93.4313 113.833 93.4311C113.105 93.4313 110.914 93.4311 110.914 93.4311C110.914 93.4311 110.914 91.3969 110.914 90.5124C110.914 88.9006 112.221 87.5938 113.833 87.5938C115.445 87.5938 116.752 88.9005 116.752 90.5125Z" fill="#221D1C"/>
<path d="M128.428 93.4313V87.5938H122.591C122.591 90.8177 125.204 93.4313 128.428 93.4313Z" fill="#221D1C"/>
<path d="M134.265 87.5938H128.427V93.4313H134.265V87.5938Z" fill="#221D1C"/>
<path d="M140.102 90.5125C140.102 89.8322 140.102 87.5938 140.102 87.5938C140.102 87.5938 142.089 87.5938 143.021 87.5938C143.748 87.5938 145.939 87.5938 145.939 87.5938C145.939 87.5938 145.939 89.6283 145.939 90.5125C145.939 92.1244 144.632 93.4313 143.021 93.4313C141.409 93.4313 140.102 92.1244 140.102 90.5125Z" fill="#221D1C"/>
<path d="M0.000488281 96.3563C0.000488281 95.676 0.000488281 93.4375 0.000488281 93.4375C0.000488281 93.4375 1.9876 93.4375 2.91926 93.4375C3.64689 93.4375 5.83803 93.4375 5.83803 93.4375C5.83803 93.4375 5.83803 95.472 5.83803 96.3563C5.83803 97.9682 4.53116 99.275 2.91926 99.275C1.30727 99.275 0.000488281 97.9682 0.000488281 96.3563Z" fill="#221D1C"/>
<path d="M11.6768 96.3563C11.6768 95.676 11.6768 93.4375 11.6768 93.4375C11.6768 93.4375 13.6639 93.4375 14.5955 93.4375C15.3232 93.4375 17.5143 93.4375 17.5143 93.4375C17.5143 93.4375 17.5143 95.472 17.5143 96.3563C17.5143 97.9682 16.2074 99.275 14.5955 99.275C12.9835 99.275 11.6768 97.9682 11.6768 96.3563Z" fill="#221D1C"/>
<path d="M35.028 99.275V93.4375H29.1904C29.1904 96.6615 31.8039 99.275 35.028 99.275Z" fill="#221D1C"/>
<path d="M40.8649 93.4375H35.0273V99.275H40.8649V93.4375Z" fill="#221D1C"/>
<path d="M46.7023 93.4375H40.8647V99.275C44.0887 99.275 46.7023 96.6615 46.7023 93.4375Z" fill="#221D1C"/>
<path d="M58.3761 93.4375H52.5386V99.275H58.3761V93.4375Z" fill="#221D1C"/>
<path d="M81.7267 96.3563C81.7267 97.0365 81.7267 99.275 81.7267 99.275C81.7267 99.275 79.7397 99.275 78.8079 99.2749C78.0803 99.275 75.8892 99.2749 75.8892 99.2749C75.8892 99.2749 75.8892 97.2406 75.8892 96.3562C75.8892 94.7443 77.1959 93.4375 78.8079 93.4375C80.4198 93.4375 81.7267 94.7443 81.7267 96.3563Z" fill="#221D1C"/>
<path d="M93.4028 99.275H99.2404V93.4375C96.0164 93.4375 93.4028 96.051 93.4028 99.275Z" fill="#221D1C"/>
<path d="M105.078 93.4375H99.24V99.275H105.078V93.4375Z" fill="#221D1C"/>
<path d="M110.915 93.4375H105.077V99.275H110.915V93.4375Z" fill="#221D1C"/>
<path d="M116.752 93.4375H110.914V99.275H116.752V93.4375Z" fill="#221D1C"/>
<path d="M116.751 93.4375V99.275H122.588C122.588 96.051 119.975 93.4375 116.751 93.4375Z" fill="#221D1C"/>
<path d="M134.265 93.4375H128.427V99.275H134.265V93.4375Z" fill="#221D1C"/>
<path d="M134.265 93.4375V99.275H140.102C140.102 96.051 137.489 93.4375 134.265 93.4375Z" fill="#221D1C"/>
<path d="M46.7017 105.103H52.5392V99.2656C49.3153 99.2656 46.7017 101.879 46.7017 105.103Z" fill="#221D1C"/>
<path d="M58.3761 99.2656H52.5386V105.103H58.3761V99.2656Z" fill="#221D1C"/>
<path d="M64.2153 105.103H70.0529V99.2656C66.8289 99.2656 64.2153 101.879 64.2153 105.103Z" fill="#221D1C"/>
<path d="M75.8895 99.2656H70.052V105.103H75.8895V99.2656Z" fill="#221D1C"/>
<path d="M81.7267 99.2656H75.8892V105.103H81.7267V99.2656Z" fill="#221D1C"/>
<path d="M99.2404 99.2656H93.4028V105.103H99.2404V99.2656Z" fill="#221D1C"/>
<path d="M122.589 99.2656H116.751V105.103H122.589V99.2656Z" fill="#221D1C"/>
<path d="M134.265 105.103V99.2656H128.428C128.428 102.49 131.041 105.103 134.265 105.103Z" fill="#221D1C"/>
<path d="M140.102 99.2656H134.265V105.103C137.489 105.103 140.102 102.49 140.102 99.2656Z" fill="#221D1C"/>
<path d="M52.539 105.109H46.7014V110.947H52.539V105.109Z" fill="#221D1C"/>
<path d="M58.3761 105.109H52.5386V110.947H58.3761V105.109Z" fill="#221D1C"/>
<path d="M64.2133 105.109H58.3757V110.947H64.2133V105.109Z" fill="#221D1C"/>
<path d="M70.0529 105.109H64.2153V110.947C67.4393 110.947 70.0529 108.333 70.0529 105.109Z" fill="#221D1C"/>
<path d="M81.7267 105.109H75.8892V110.947H81.7267V105.109Z" fill="#221D1C"/>
<path d="M99.2404 105.109H93.4028V110.947H99.2404V105.109Z" fill="#221D1C"/>
<path d="M107.996 105.109C109.608 105.109 110.915 106.416 110.915 108.028C110.915 109.64 109.608 110.947 107.996 110.947C106.384 110.947 105.077 109.64 105.077 108.028C105.077 106.416 106.384 105.109 107.996 105.109Z" fill="#221D1C"/>
<path d="M122.589 105.109H116.751V110.947H122.589V105.109Z" fill="#221D1C"/>
<path d="M143.021 105.109C144.633 105.109 145.939 106.416 145.939 108.028C145.939 109.64 144.633 110.947 143.021 110.947C141.409 110.947 140.102 109.64 140.102 108.028C140.102 106.416 141.409 105.109 143.021 105.109Z" fill="#221D1C"/>
<path d="M52.539 110.945H46.7014V116.783H52.539V110.945Z" fill="#221D1C"/>
<path d="M58.3761 110.945H52.5386V116.783H58.3761V110.945Z" fill="#221D1C"/>
<path d="M64.213 110.953H58.3755V116.791C61.5995 116.791 64.213 114.177 64.213 110.953Z" fill="#221D1C"/>
<path d="M70.0522 116.791H75.8898V110.953C72.6658 110.953 70.0522 113.567 70.0522 116.791Z" fill="#221D1C"/>
<path d="M81.7267 110.953H75.8892V116.791C79.1131 116.791 81.7267 114.177 81.7267 110.953Z" fill="#221D1C"/>
<path d="M87.5659 116.791H93.4035V110.953C90.1795 110.953 87.5659 113.567 87.5659 116.791Z" fill="#221D1C"/>
<path d="M99.2404 110.945H93.4028V116.783H99.2404V110.945Z" fill="#221D1C"/>
<path d="M122.589 110.945H116.751V116.783H122.589V110.945Z" fill="#221D1C"/>
<path d="M140.102 113.864C140.102 114.544 140.102 116.783 140.102 116.783C140.102 116.783 138.115 116.783 137.183 116.783C136.456 116.783 134.265 116.783 134.265 116.783C134.265 116.783 134.265 114.748 134.265 113.864C134.265 112.252 135.571 110.945 137.183 110.945C138.795 110.945 140.102 112.252 140.102 113.864Z" fill="#221D1C"/>
<path d="M52.539 116.781H46.7014V122.619H52.539V116.781Z" fill="#221D1C"/>
<path d="M58.3761 116.781H52.5386V122.619C55.7626 122.619 58.3761 120.005 58.3761 116.781Z" fill="#221D1C"/>
<path d="M70.052 119.7C70.052 119.02 70.052 116.781 70.052 116.781C70.052 116.781 72.0391 116.781 72.9708 116.781C73.6984 116.781 75.8895 116.781 75.8895 116.781C75.8895 116.781 75.8895 118.816 75.8895 119.7C75.8895 121.312 74.5827 122.619 72.9708 122.619C71.3588 122.619 70.052 121.312 70.052 119.7Z" fill="#221D1C"/>
<path d="M93.403 116.781H87.5654V122.619H93.403V116.781Z" fill="#221D1C"/>
<path d="M99.2404 116.781H93.4028V122.619H99.2404V116.781Z" fill="#221D1C"/>
<path d="M105.078 116.781H99.24V122.619H105.078V116.781Z" fill="#221D1C"/>
<path d="M110.915 116.781H105.077V122.619H110.915V116.781Z" fill="#221D1C"/>
<path d="M116.752 116.781H110.914V122.619H116.752V116.781Z" fill="#221D1C"/>
<path d="M122.588 116.781H116.751V122.619C119.975 122.619 122.588 120.005 122.588 116.781Z" fill="#221D1C"/>
<path d="M140.102 116.781H134.265V122.619H140.102V116.781Z" fill="#221D1C"/>
<path d="M140.102 116.781V122.619H145.939C145.939 119.395 143.326 116.781 140.102 116.781Z" fill="#221D1C"/>
<path d="M46.7014 125.544C46.7014 124.863 46.7014 122.625 46.7014 122.625C46.7014 122.625 48.6885 122.625 49.6202 122.625C50.3478 122.625 52.539 122.625 52.539 122.625C52.539 122.625 52.539 124.66 52.539 125.544C52.539 127.156 51.2321 128.463 49.6202 128.463C48.0082 128.463 46.7014 127.156 46.7014 125.544Z" fill="#221D1C"/>
<path d="M75.8892 128.463H81.7267V122.625C78.5028 122.625 75.8892 125.239 75.8892 128.463Z" fill="#221D1C"/>
<path d="M87.5639 122.625H81.7263V128.463H87.5639V122.625Z" fill="#221D1C"/>
<path d="M93.4035 122.625H87.5659V128.463C90.7899 128.463 93.4035 125.849 93.4035 122.625Z" fill="#221D1C"/>
<path d="M105.077 125.544C105.077 124.863 105.077 122.625 105.077 122.625C105.077 122.625 107.064 122.625 107.996 122.625C108.724 122.625 110.915 122.625 110.915 122.625C110.915 122.625 110.915 124.66 110.915 125.544C110.915 127.156 109.608 128.463 107.996 128.463C106.384 128.463 105.077 127.156 105.077 125.544Z" fill="#221D1C"/>
<path d="M140.102 122.625H134.265V128.463H140.102V122.625Z" fill="#221D1C"/>
<path d="M145.939 122.625H140.102V128.463H145.939V122.625Z" fill="#221D1C"/>
<path d="M55.4573 128.461C56.1376 128.461 58.3761 128.461 58.3761 128.461C58.3761 128.461 58.3761 130.448 58.3761 131.38C58.3761 132.107 58.3761 134.298 58.3761 134.298C58.3761 134.298 56.3421 134.298 55.4573 134.298C53.8448 134.298 52.5386 132.991 52.5386 131.38C52.5386 129.768 53.8448 128.461 55.4573 128.461Z" fill="#221D1C"/>
<path d="M58.3755 128.453V134.291H64.213C64.213 131.067 61.5995 128.453 58.3755 128.453Z" fill="#221D1C"/>
<path d="M72.9708 128.461C73.6511 128.461 75.8895 128.461 75.8895 128.461C75.8895 128.461 75.8895 130.448 75.8895 131.38C75.8895 132.107 75.8895 134.298 75.8895 134.298C75.8895 134.298 73.8555 134.298 72.9708 134.298C71.3582 134.298 70.052 132.991 70.052 131.38C70.052 129.768 71.3582 128.461 72.9708 128.461Z" fill="#221D1C"/>
<path d="M81.7267 128.453H75.8892V134.291C79.1131 134.291 81.7267 131.677 81.7267 128.453Z" fill="#221D1C"/>
<path d="M102.159 128.461C103.771 128.461 105.078 129.768 105.078 131.38C105.078 132.992 103.771 134.298 102.159 134.298C100.547 134.298 99.24 132.992 99.24 131.38C99.24 129.768 100.547 128.461 102.159 128.461Z" fill="#221D1C"/>
<path d="M116.751 134.291H122.588V128.453C119.364 128.453 116.751 131.067 116.751 134.291Z" fill="#221D1C"/>
<path d="M128.428 128.461H122.59V134.298H128.428V128.461Z" fill="#221D1C"/>
<path d="M134.265 128.461H128.427V134.298H134.265V128.461Z" fill="#221D1C"/>
<path d="M140.102 128.461H134.265V134.298H140.102V128.461Z" fill="#221D1C"/>
<path d="M145.939 128.461H140.102V134.298H145.939V128.461Z" fill="#221D1C"/>
<path d="M58.3757 137.216C58.3757 136.535 58.3757 134.297 58.3757 134.297C58.3757 134.297 60.3628 134.297 61.2945 134.297C62.0221 134.297 64.2133 134.297 64.2133 134.297C64.2133 134.297 64.2133 136.331 64.2133 137.216C64.2133 138.828 62.9064 140.134 61.2945 140.134C59.6825 140.134 58.3757 138.828 58.3757 137.216Z" fill="#221D1C"/>
<path d="M87.5639 137.216C87.5639 137.896 87.5639 140.134 87.5639 140.134C87.5639 140.134 85.5768 140.134 84.6451 140.134C83.9174 140.134 81.7263 140.134 81.7263 140.134C81.7263 140.134 81.7263 138.1 81.7263 137.216C81.7264 135.604 83.0331 134.297 84.645 134.297C86.257 134.297 87.5639 135.604 87.5639 137.216Z" fill="#221D1C"/>
<path d="M113.833 134.297C114.513 134.297 116.752 134.297 116.752 134.297C116.752 134.297 116.752 136.284 116.752 137.216C116.752 137.943 116.752 140.134 116.752 140.134C116.752 140.134 114.718 140.134 113.833 140.134C112.22 140.134 110.914 138.827 110.914 137.216C110.914 135.604 112.22 134.297 113.833 134.297Z" fill="#221D1C"/>
<path d="M122.588 134.297H116.751V140.134C119.975 140.134 122.588 137.521 122.588 134.297Z" fill="#221D1C"/>
<path d="M134.265 140.134V134.297H128.428C128.428 137.521 131.041 140.134 134.265 140.134Z" fill="#221D1C"/>
<path d="M140.102 134.297H134.265V140.134H140.102V134.297Z" fill="#221D1C"/>
<path d="M145.939 134.297H140.102V140.134H145.939V134.297Z" fill="#221D1C"/>
<path d="M49.6202 140.141C51.2322 140.141 52.539 141.447 52.539 143.059C52.539 144.671 51.2322 145.978 49.6202 145.978C48.0082 145.978 46.7014 144.671 46.7014 143.059C46.7014 141.447 48.0082 140.141 49.6202 140.141Z" fill="#221D1C"/>
<path d="M72.9708 140.141C73.6511 140.141 75.8895 140.141 75.8895 140.141C75.8895 140.141 75.8895 142.128 75.8895 143.059C75.8895 143.787 75.8895 145.978 75.8895 145.978C75.8895 145.978 73.8555 145.978 72.9708 145.978C71.3582 145.978 70.052 144.671 70.052 143.059C70.052 141.448 71.3582 140.141 72.9708 140.141Z" fill="#221D1C"/>
<path d="M81.7267 140.141H75.8892V145.978H81.7267V140.141Z" fill="#221D1C"/>
<path d="M87.5636 140.141H81.7261V145.978C84.9501 145.978 87.5636 143.365 87.5636 140.141Z" fill="#221D1C"/>
<path d="M96.3216 140.141C97.0019 140.141 99.2404 140.141 99.2404 140.141C99.2404 140.141 99.2404 142.128 99.2404 143.059C99.2404 143.787 99.2404 145.978 99.2404 145.978C99.2404 145.978 97.2063 145.978 96.3216 145.978C94.7091 145.978 93.4028 144.671 93.4028 143.059C93.4028 141.448 94.7091 140.141 96.3216 140.141Z" fill="#221D1C"/>
<path d="M102.159 145.978C101.478 145.978 99.24 145.978 99.24 145.978C99.24 145.978 99.24 143.991 99.24 143.059C99.24 142.332 99.24 140.141 99.24 140.141C99.24 140.141 101.275 140.141 102.159 140.141C103.771 140.141 105.078 141.447 105.078 143.059C105.078 144.671 103.771 145.978 102.159 145.978Z" fill="#221D1C"/>
<path d="M125.509 140.141C127.121 140.141 128.428 141.447 128.428 143.059C128.428 144.671 127.121 145.978 125.509 145.978C123.897 145.978 122.59 144.671 122.59 143.059C122.59 141.447 123.897 140.141 125.509 140.141Z" fill="#221D1C"/>
<path d="M140.102 143.059C140.102 142.379 140.102 140.141 140.102 140.141C140.102 140.141 142.089 140.141 143.021 140.141C143.748 140.141 145.939 140.141 145.939 140.141C145.939 140.141 145.939 142.175 145.939 143.059C145.939 144.671 144.632 145.978 143.021 145.978C141.409 145.978 140.102 144.671 140.102 143.059Z" fill="#221D1C"/>
<path d="M0.00100327 27.091V13.8224C0.00100327 6.21828 6.26118 0.03125 13.952 0.03125H26.9132C34.6036 0.03125 40.8638 6.21828 40.8638 13.8224V40.894L13.952 40.8858C6.26118 40.8858 0.00100327 34.6992 0.00100327 27.091ZM6.13042 27.091C6.13042 31.3178 9.6389 34.7568 13.9536 34.7568L34.7344 34.763V13.8224C34.7344 9.59763 31.2259 6.16067 26.9132 6.16067H13.952C9.6389 6.16067 6.13042 9.59763 6.13042 13.8224V27.091Z" fill="#221D1C"/>
<path d="M145.939 27.091V13.8224C145.939 6.21828 139.679 0.03125 131.988 0.03125H119.027C111.337 0.03125 105.077 6.21828 105.077 13.8224V40.894L131.988 40.8858C139.679 40.8858 145.939 34.6992 145.939 27.091ZM139.81 27.091C139.81 31.3178 136.302 34.7568 131.987 34.7568L111.206 34.763V13.8224C111.206 9.59763 114.715 6.16067 119.027 6.16067H131.988C136.302 6.16067 139.81 9.59763 139.81 13.8224V27.091Z" fill="#221D1C"/>
<path d="M0.00100327 118.909V132.178C0.00100327 139.782 6.26118 145.969 13.952 145.969H26.9132C34.6036 145.969 40.8638 139.782 40.8638 132.178V105.106L13.952 105.114C6.26118 105.114 0.00100327 111.301 0.00100327 118.909ZM6.13042 118.909C6.13042 114.682 9.6389 111.243 13.9536 111.243L34.7344 111.237V132.178C34.7344 136.402 31.2259 139.839 26.9132 139.839H13.952C9.6389 139.839 6.13042 136.402 6.13042 132.178V118.909Z" fill="#221D1C"/>
<path d="M29.1894 11.7031H11.6768V29.2157H29.1894V11.7031Z" fill="#221D1C"/>
<path d="M134.264 11.7031H116.751V29.2157H134.264V11.7031Z" fill="#221D1C"/>
<path d="M29.1894 116.781H11.6768V134.294H29.1894V116.781Z" fill="#221D1C"/>
</svg>
